<svg width="47" height="50" viewBox="0 0 47 50" fill="none" xmlns="http://www.w3.org/2000/svg">
<g clip-path="url(#clip0_1_2)">
<path fill-rule="evenodd" clip-rule="evenodd" d="M-251 1.12576e-05H149V50H-251V1.12576e-05ZM-205.7 46.97C-205.783 46.9857 -205.867 46.994 -205.952 46.995C-205.967 46.995 -205.981 46.995 -205.996 46.995V46.993C-206.323 47.0053 -206.645 46.9078 -206.911 46.716L-211.017 43.433L-215.123 46.716H-215.13C-215.264 46.8107 -215.413 46.882 -215.571 46.927C-215.615 46.941 -215.657 46.962 -215.702 46.972C-215.906 46.9932 -216.113 46.9932 -216.317 46.972C-216.362 46.962 -216.403 46.941 -216.448 46.927C-216.606 46.882 -216.755 46.8107 -216.889 46.716H-216.896L-221.002 43.433L-225.108 46.716H-225.115C-225.249 46.8107 -225.398 46.882 -225.556 46.927C-225.601 46.941 -225.642 46.962 -225.687 46.972C-225.891 46.9932 -226.098 46.9932 -226.302 46.972C-226.347 46.962 -226.388 46.941 -226.433 46.927C-226.591 46.882 -226.74 46.8107 -226.874 46.716H-226.881L-230.987 43.433L-235.1 46.716H-235.107C-235.241 46.8107 -235.39 46.882 -235.548 46.927C-235.593 46.941 -235.634 46.962 -235.679 46.972C-235.78 46.9881 -235.883 46.9934 -235.986 46.988C-236.089 46.9935 -236.192 46.9881 -236.294 46.972C-236.339 46.962 -236.38 46.941 -236.425 46.927C-236.583 46.882 -236.732 46.8107 -236.866 46.716H-236.873L-240.979 43.433L-245.085 46.716C-245.351 46.9077 -245.673 47.0052 -246 46.993V47C-246.015 47 -246.029 47 -246.044 47C-246.13 46.9976 -246.216 46.9876 -246.3 46.97C-247.038 46.8981 -247.723 46.5543 -248.222 46.0054C-248.721 45.4565 -248.999 44.7418 -249 44V5.00001C-249 4.20436 -248.684 3.4413 -248.121 2.87869C-247.559 2.31608 -246.796 2.00001 -246 2.00001H-206C-205.204 2.00001 -204.441 2.31608 -203.879 2.87869C-203.316 3.4413 -203 4.20436 -203 5.00001V44C-203.001 44.7418 -203.279 45.4565 -203.778 46.0054C-204.277 46.5543 -204.962 46.8981 -205.7 46.97ZM-206 42V6.00001C-206 5.73479 -206.105 5.48044 -206.293 5.2929C-206.48 5.10537 -206.735 5.00001 -207 5.00001H-245C-245.265 5.00001 -245.52 5.10537 -245.707 5.2929C-245.895 5.48044 -246 5.73479 -246 6.00001V43.6L-241.872 40.3C-241.861 40.292 -241.849 40.291 -241.838 40.284C-241.72 40.2043 -241.592 40.1423 -241.456 40.1C-241.398 40.0756 -241.339 40.0549 -241.278 40.038C-241.179 40.0228 -241.078 40.0178 -240.978 40.023C-240.878 40.0178 -240.777 40.0228 -240.678 40.038C-240.617 40.0549 -240.558 40.0756 -240.5 40.1C-240.364 40.142 -240.236 40.2037 -240.118 40.283C-240.107 40.291 -240.094 40.291 -240.084 40.299L-235.984 43.577L-231.884 40.299C-231.873 40.291 -231.861 40.29 -231.85 40.283C-231.733 40.2039 -231.605 40.1422 -231.47 40.1C-231.412 40.0756 -231.353 40.0549 -231.292 40.038C-231.093 40.0174 -230.891 40.0174 -230.692 40.038C-230.631 40.0549 -230.572 40.0756 -230.514 40.1C-230.378 40.142 -230.25 40.2037 -230.132 40.283C-230.121 40.291 -230.108 40.291 -230.098 40.299L-226 43.573L-221.9 40.3C-221.889 40.292 -221.877 40.291 -221.866 40.284C-221.748 40.2047 -221.62 40.143 -221.484 40.101C-221.426 40.0766 -221.367 40.0559 -221.306 40.039C-221.107 40.0184 -220.905 40.0184 -220.706 40.039C-220.645 40.0559 -220.586 40.0766 -220.528 40.101C-220.392 40.143 -220.264 40.2047 -220.146 40.284C-220.135 40.292 -220.122 40.292 -220.112 40.3L-216.012 43.578L-211.912 40.3C-211.901 40.292 -211.889 40.291 -211.878 40.284C-211.762 40.2047 -211.634 40.1427 -211.5 40.1C-211.442 40.0756 -211.383 40.0549 -211.322 40.038C-211.123 40.0174 -210.921 40.0174 -210.722 40.038C-210.661 40.0549 -210.602 40.0756 -210.544 40.1C-210.408 40.142 -210.28 40.2037 -210.162 40.283C-210.151 40.291 -210.138 40.291 -210.128 40.299L-206 43.6V42ZM-216 31H-229C-229.265 31 -229.52 30.8947 -229.707 30.7071C-229.895 30.5196 -230 30.2652 -230 30V29C-230 28.7348 -229.895 28.4804 -229.707 28.2929C-229.52 28.1054 -229.265 28 -229 28H-216C-215.735 28 -215.48 28.1054 -215.293 28.2929C-215.105 28.4804 -215 28.7348 -215 29V30C-215 30.2652 -215.105 30.5196 -215.293 30.7071C-215.48 30.8947 -215.735 31 -216 31ZM-216 24H-229C-229.265 24 -229.52 23.8947 -229.707 23.7071C-229.895 23.5196 -230 23.2652 -230 23V22C-230 21.7348 -229.895 21.4804 -229.707 21.2929C-229.52 21.1054 -229.265 21 -229 21H-216C-215.735 21 -215.48 21.1054 -215.293 21.2929C-215.105 21.4804 -215 21.7348 -215 22V23C-215 23.2652 -215.105 23.5196 -215.293 23.7071C-215.48 23.8947 -215.735 24 -216 24ZM-216 17H-229C-229.265 17 -229.52 16.8947 -229.707 16.7071C-229.895 16.5196 -230 16.2652 -230 16V15C-230 14.7348 -229.895 14.4804 -229.707 14.2929C-229.52 14.1054 -229.265 14 -229 14H-216C-215.735 14 -215.48 14.1054 -215.293 14.2929C-215.105 14.4804 -215 14.7348 -215 15V16C-215 16.2652 -215.105 16.5196 -215.293 16.7071C-215.48 16.8947 -215.735 17 -216 17ZM-234 31H-236C-236.265 31 -236.52 30.8947 -236.707 30.7071C-236.895 30.5196 -237 30.2652 -237 30V29C-237 28.7348 -236.895 28.4804 -236.707 28.2929C-236.52 28.1054 -236.265 28 -236 28H-234C-233.735 28 -233.48 28.1054 -233.293 28.2929C-233.105 28.4804 -233 28.7348 -233 29V30C-233 30.2652 -233.105 30.5196 -233.293 30.7071C-233.48 30.8947 -233.735 31 -234 31ZM-234 24H-236C-236.265 24 -236.52 23.8947 -236.707 23.7071C-236.895 23.5196 -237 23.2652 -237 23V22C-237 21.7348 -236.895 21.4804 -236.707 21.2929C-236.52 21.1054 -236.265 21 -236 21H-234C-233.735 21 -233.48 21.1054 -233.293 21.2929C-233.105 21.4804 -233 21.7348 -233 22V23C-233 23.2652 -233.105 23.5196 -233.293 23.7071C-233.48 23.8947 -233.735 24 -234 24ZM-234 17H-236C-236.265 17 -236.52 16.8947 -236.707 16.7071C-236.895 16.5196 -237 16.2652 -237 16V15C-237 14.7348 -236.895 14.4804 -236.707 14.2929C-236.52 14.1054 -236.265 14 -236 14H-234C-233.735 14 -233.48 14.1054 -233.293 14.2929C-233.105 14.4804 -233 14.7348 -233 15V16C-233 16.2652 -233.105 16.5196 -233.293 16.7071C-233.48 16.8947 -233.735 17 -234 17ZM-156 45H-196C-197.326 45 -198.598 44.4732 -199.536 43.5355C-200.473 42.5979 -201 41.3261 -201 40V10C-201 8.67393 -200.473 7.40216 -199.536 6.46448C-198.598 5.5268 -197.326 5.00001 -196 5.00001H-156C-154.674 5.00001 -153.402 5.5268 -152.464 6.46448C-151.527 7.40216 -151 8.67393 -151 10V40C-151 41.3261 -151.527 42.5979 -152.464 43.5355C-153.402 44.4732 -154.674 45 -156 45ZM-196 42H-156C-155.47 42 -154.961 41.7893 -154.586 41.4142C-154.211 41.0392 -154 40.5304 -154 40V23H-198V40C-198 40.5304 -197.789 41.0392 -197.414 41.4142C-197.039 41.7893 -196.53 42 -196 42ZM-154 10C-154 9.46958 -154.211 8.96087 -154.586 8.5858C-154.961 8.21073 -155.47 8.00001 -156 8.00001H-196C-196.53 8.00001 -197.039 8.21073 -197.414 8.5858C-197.789 8.96087 -198 9.46958 -198 10V13H-154V10ZM-198 16V20H-154V16H-198ZM-191.5 34H-187.5C-187.102 34 -186.721 34.158 -186.439 34.4394C-186.158 34.7207 -186 35.1022 -186 35.5C-186 35.8978 -186.158 36.2794 -186.439 36.5607C-186.721 36.842 -187.102 37 -187.5 37H-191.5C-191.898 37 -192.279 36.842 -192.561 36.5607C-192.842 36.2794 -193 35.8978 -193 35.5C-193 35.1022 -192.842 34.7207 -192.561 34.4394C-192.279 34.158 -191.898 34 -191.5 34ZM-181.5 34H-177.5C-177.102 34 -176.721 34.158 -176.439 34.4394C-176.158 34.7207 -176 35.1022 -176 35.5C-176 35.8978 -176.158 36.2794 -176.439 36.5607C-176.721 36.842 -177.102 37 -177.5 37H-181.5C-181.898 37 -182.279 36.842 -182.561 36.5607C-182.842 36.2794 -183 35.8978 -183 35.5C-183 35.1022 -182.842 34.7207 -182.561 34.4394C-182.279 34.158 -181.898 34 -181.5 34ZM-126 50C-130.945 50 -135.778 48.5338 -139.889 45.7868C-144 43.0397 -147.205 39.1352 -149.097 34.5671C-150.989 29.9989 -151.484 24.9723 -150.52 20.1228C-149.555 15.2732 -147.174 10.8187 -143.678 7.32234C-140.181 3.82603 -135.727 1.44501 -130.877 0.480379C-126.028 -0.484251 -121.001 0.0108321 -116.433 1.90302C-111.865 3.79521 -107.96 6.99953 -105.213 11.1108C-102.466 15.222 -101 20.0555 -101 25C-101 31.6304 -103.634 37.9893 -108.322 42.6777C-113.011 47.3661 -119.37 50 -126 50ZM-115.155 44.127C-117.206 43.4799 -119.1 42.4152 -120.719 41C-121.924 39.87 -122.4 37.78 -122.587 36.39C-124.698 37.1694 -127.012 37.2046 -129.146 36.49C-129.28 38.1496 -129.928 39.7262 -131 41C-132.67 42.4544 -134.627 43.5407 -136.745 44.188C-133.447 46.0421 -129.725 47.0109 -125.942 47.0002C-122.159 46.9895 -118.442 45.9997 -115.155 44.127ZM-126 33.875C-125.081 33.875 -124.17 33.6939 -123.321 33.3422C-122.472 32.9904 -121.7 32.4748 -121.05 31.8248C-120.4 31.1747 -119.885 30.4031 -119.533 29.5538C-119.181 28.7045 -119 27.7943 -119 26.875V21.125C-119 19.2685 -119.737 17.488 -121.05 16.1753C-122.363 14.8625 -124.143 14.125 -126 14.125C-127.857 14.125 -129.637 14.8625 -130.95 16.1753C-132.262 17.488 -133 19.2685 -133 21.125V26.875C-133 27.7943 -132.819 28.7045 -132.467 29.5538C-132.115 30.4031 -131.6 31.1747 -130.95 31.8248C-129.637 33.1375 -127.857 33.875 -126 33.875ZM-126 3.00001C-130.529 3.00004 -134.949 4.39816 -138.654 7.00343C-142.359 9.6087 -145.17 13.2941 -146.702 17.5565C-148.235 21.8189 -148.414 26.4504 -147.216 30.8186C-146.018 35.1868 -143.501 39.0787 -140.009 41.963C-137.675 41.6885 -135.474 40.73 -133.683 39.208C-132.621 38.065 -132.009 36.5771 -131.957 35.018C-133.211 34.0906 -134.23 32.8822 -134.932 31.4897C-135.634 30.0972 -136 28.5595 -136 27V21C-136 18.3478 -134.946 15.8043 -133.071 13.9289C-131.196 12.0536 -128.652 11 -126 11C-123.348 11 -120.804 12.0536 -118.929 13.9289C-117.054 15.8043 -116 18.3478 -116 21V27C-115.999 28.5039 -116.339 29.9884 -116.993 31.3426C-117.647 32.6968 -118.599 33.8856 -119.777 34.82C-119.759 36.448 -119.138 38.0115 -118.035 39.209C-116.312 40.6857 -114.197 41.629 -111.947 41.924C-108.467 39.0335 -105.962 35.1404 -104.775 30.7751C-103.587 26.4097 -103.774 21.7844 -105.311 17.5292C-106.847 13.274 -109.658 9.59591 -113.36 6.99597C-117.062 4.39603 -121.476 3.00068 -126 3.00001ZM-58 50H-94C-95.0609 50 -96.0783 49.5786 -96.8284 48.8284C-97.5786 48.0783 -98 47.0609 -98 46V8.00001C-98 6.93915 -97.5786 5.92173 -96.8284 5.17158C-96.0783 4.42144 -95.0609 4.00001 -94 4.00001H-88.767C-88.444 2.85092 -87.7549 1.83859 -86.8043 1.11668C-85.8538 0.39477 -84.6936 0.00270972 -83.5 1.12576e-05H-68.5C-67.3064 0.00270972 -66.1462 0.39477 -65.1957 1.11668C-64.2451 1.83859 -63.556 2.85092 -63.233 4.00001H-58C-56.9391 4.00001 -55.9217 4.42144 -55.1716 5.17158C-54.4214 5.92173 -54 6.93915 -54 8.00001V46C-54 47.0609 -54.4214 48.0783 -55.1716 48.8284C-55.9217 49.5786 -56.9391 50 -58 50ZM-68.5 3.00001H-83.5C-84.163 3.00001 -84.7989 3.2634 -85.2678 3.73224C-85.7366 4.20109 -86 4.83697 -86 5.50001C-86 6.16305 -85.7366 6.79894 -85.2678 7.26778C-84.7989 7.73662 -84.163 8.00001 -83.5 8.00001H-68.5C-67.837 8.00001 -67.2011 7.73662 -66.7322 7.26778C-66.2634 6.79894 -66 6.16305 -66 5.50001C-66 4.83697 -66.2634 4.20109 -66.7322 3.73224C-67.2011 3.2634 -67.837 3.00001 -68.5 3.00001ZM-57 8.00001C-57 7.73479 -57.1054 7.48044 -57.2929 7.2929C-57.4804 7.10537 -57.7348 7.00001 -58 7.00001H-63.233C-63.556 8.1491 -64.2451 9.16144 -65.1957 9.88334C-66.1462 10.6053 -67.3064 10.9973 -68.5 11H-83.5C-84.6937 10.9975 -85.8539 10.6055 -86.8045 9.88355C-87.7551 9.16161 -88.4441 8.14919 -88.767 7.00001H-94C-94.2652 7.00001 -94.5196 7.10537 -94.7071 7.2929C-94.8946 7.48044 -95 7.73479 -95 8.00001V46C-95 46.2652 -94.8946 46.5196 -94.7071 46.7071C-94.5196 46.8947 -94.2652 47 -94 47H-58C-57.7348 47 -57.4804 46.8947 -57.2929 46.7071C-57.1054 46.5196 -57 46.2652 -57 46V8.00001ZM-67.5 40H-75.5C-75.8978 40 -76.2793 39.842 -76.5607 39.5607C-76.842 39.2794 -77 38.8978 -77 38.5C-77 38.1022 -76.842 37.7207 -76.5607 37.4394C-76.2793 37.158 -75.8978 37 -75.5 37H-67.5C-67.1022 37 -66.7207 37.158 -66.4393 37.4394C-66.158 37.7207 -66 38.1022 -66 38.5C-66 38.8978 -66.158 39.2794 -66.4393 39.5607C-66.7207 39.842 -67.1022 40 -67.5 40ZM-67.5 33H-75.5C-75.8978 33 -76.2793 32.842 -76.5607 32.5607C-76.842 32.2794 -77 31.8978 -77 31.5C-77 31.1022 -76.842 30.7207 -76.5607 30.4394C-76.2793 30.158 -75.8978 30 -75.5 30H-67.5C-67.1022 30 -66.7207 30.158 -66.4393 30.4394C-66.158 30.7207 -66 31.1022 -66 31.5C-66 31.8978 -66.158 32.2794 -66.4393 32.5607C-66.7207 32.842 -67.1022 33 -67.5 33ZM-67.5 26H-75.5C-75.8978 26 -76.2793 25.842 -76.5607 25.5607C-76.842 25.2794 -77 24.8978 -77 24.5C-77 24.1022 -76.842 23.7207 -76.5607 23.4394C-76.2793 23.158 -75.8978 23 -75.5 23H-67.5C-67.1022 23 -66.7207 23.158 -66.4393 23.4394C-66.158 23.7207 -66 24.1022 -66 24.5C-66 24.8978 -66.158 25.2794 -66.4393 25.5607C-66.7207 25.842 -67.1022 26 -67.5 26ZM-67.5 19H-75.5C-75.8978 19 -76.2793 18.842 -76.5607 18.5607C-76.842 18.2794 -77 17.8978 -77 17.5C-77 17.1022 -76.842 16.7207 -76.5607 16.4394C-76.2793 16.158 -75.8978 16 -75.5 16H-67.5C-67.1022 16 -66.7207 16.158 -66.4393 16.4394C-66.158 16.7207 -66 17.1022 -66 17.5C-66 17.8978 -66.158 18.2794 -66.4393 18.5607C-66.7207 18.842 -67.1022 19 -67.5 19ZM-82.5 40H-84.5C-84.8978 40 -85.2793 39.842 -85.5607 39.5607C-85.842 39.2794 -86 38.8978 -86 38.5C-86 38.1022 -85.842 37.7207 -85.5607 37.4394C-85.2793 37.158 -84.8978 37 -84.5 37H-82.5C-82.1022 37 -81.7207 37.158 -81.4393 37.4394C-81.158 37.7207 -81 38.1022 -81 38.5C-81 38.8978 -81.158 39.2794 -81.4393 39.5607C-81.7207 39.842 -82.1022 40 -82.5 40ZM-82.5 33H-84.5C-84.8978 33 -85.2793 32.842 -85.5607 32.5607C-85.842 32.2794 -86 31.8978 -86 31.5C-86 31.1022 -85.842 30.7207 -85.5607 30.4394C-85.2793 30.158 -84.8978 30 -84.5 30H-82.5C-82.1022 30 -81.7207 30.158 -81.4393 30.4394C-81.158 30.7207 -81 31.1022 -81 31.5C-81 31.8978 -81.158 32.2794 -81.4393 32.5607C-81.7207 32.842 -82.1022 33 -82.5 33ZM-82.5 26H-84.5C-84.8978 26 -85.2793 25.842 -85.5607 25.5607C-85.842 25.2794 -86 24.8978 -86 24.5C-86 24.1022 -85.842 23.7207 -85.5607 23.4394C-85.2793 23.158 -84.8978 23 -84.5 23H-82.5C-82.1022 23 -81.7207 23.158 -81.4393 23.4394C-81.158 23.7207 -81 24.1022 -81 24.5C-81 24.8978 -81.158 25.2794 -81.4393 25.5607C-81.7207 25.842 -82.1022 26 -82.5 26ZM-82.5 19H-84.5C-84.8978 19 -85.2793 18.842 -85.5607 18.5607C-85.842 18.2794 -86 17.8978 -86 17.5C-86 17.1022 -85.842 16.7207 -85.5607 16.4394C-85.2793 16.158 -84.8978 16 -84.5 16H-82.5C-82.1022 16 -81.7207 16.158 -81.4393 16.4394C-81.158 16.7207 -81 17.1022 -81 17.5C-81 17.8978 -81.158 18.2794 -81.4393 18.5607C-81.7207 18.842 -82.1022 19 -82.5 19ZM-5.5 27H-29.5C-29.8978 27 -30.2793 26.842 -30.5607 26.5607C-30.842 26.2794 -31 25.8978 -31 25.5C-31 25.1022 -30.842 24.7207 -30.5607 24.4394C-30.2793 24.158 -29.8978 24 -29.5 24H-5.5C-5.10218 24 -4.72065 24.158 -4.43935 24.4394C-4.15804 24.7207 -4 25.1022 -4 25.5C-4 25.8978 -4.15804 26.2794 -4.43935 26.5607C-4.72065 26.842 -5.10218 27 -5.5 27ZM-5.5 11H-29.5C-29.8978 11 -30.2793 10.842 -30.5607 10.5607C-30.842 10.2794 -31 9.89784 -31 9.50001C-31 9.10219 -30.842 8.72066 -30.5607 8.43935C-30.2793 8.15805 -29.8978 8.00001 -29.5 8.00001H-5.5C-5.10218 8.00001 -4.72065 8.15805 -4.43935 8.43935C-4.15804 8.72066 -4 9.10219 -4 9.50001C-4 9.89784 -4.15804 10.2794 -4.43935 10.5607C-4.72065 10.842 -5.10218 11 -5.5 11ZM-42.5 48C-43.7856 48 -45.0423 47.6188 -46.1112 46.9046C-47.1801 46.1903 -48.0132 45.1752 -48.5052 43.9875C-48.9972 42.7997 -49.1259 41.4928 -48.8751 40.2319C-48.6243 38.971 -48.0052 37.8129 -47.0962 36.9038C-46.1872 35.9948 -45.029 35.3757 -43.7681 35.1249C-42.5072 34.8741 -41.2003 35.0028 -40.0126 35.4948C-38.8248 35.9868 -37.8097 36.8199 -37.0954 37.8888C-36.3812 38.9577 -36 40.2144 -36 41.5C-36 43.2239 -36.6848 44.8772 -37.9038 46.0962C-39.1228 47.3152 -40.7761 48 -42.5 48ZM-42.51 37.987C-43.2022 37.987 -43.8789 38.1923 -44.4545 38.5769C-45.0301 38.9615 -45.4787 39.5081 -45.7436 40.1476C-46.0085 40.7872 -46.0778 41.4909 -45.9427 42.1698C-45.8077 42.8488 -45.4744 43.4724 -44.9849 43.9619C-44.4954 44.4514 -43.8717 44.7847 -43.1928 44.9198C-42.5139 45.0548 -41.8101 44.9855 -41.1706 44.7206C-40.5311 44.4557 -39.9844 44.0071 -39.5999 43.4315C-39.2153 42.8559 -39.01 42.1792 -39.01 41.487C-39.01 40.5588 -39.3787 39.6685 -40.0351 39.0121C-40.6915 38.3558 -41.5817 37.987 -42.51 37.987ZM-42.5 32C-43.7856 32 -45.0423 31.6188 -46.1112 30.9046C-47.1801 30.1903 -48.0132 29.1752 -48.5052 27.9875C-48.9972 26.7997 -49.1259 25.4928 -48.8751 24.2319C-48.6243 22.971 -48.0052 21.8129 -47.0962 20.9038C-46.1872 19.9948 -45.029 19.3757 -43.7681 19.1249C-42.5072 18.8741 -41.2003 19.0028 -40.0126 19.4948C-38.8248 19.9868 -37.8097 20.8199 -37.0954 21.8888C-36.3812 22.9577 -36 24.2144 -36 25.5C-36 27.2239 -36.6848 28.8772 -37.9038 30.0962C-39.1228 31.3152 -40.7761 32 -42.5 32ZM-42.51 21.987C-43.2022 21.987 -43.8789 22.1923 -44.4545 22.5769C-45.0301 22.9615 -45.4787 23.5081 -45.7436 24.1476C-46.0085 24.7872 -46.0778 25.4909 -45.9427 26.1698C-45.8077 26.8488 -45.4744 27.4724 -44.9849 27.9619C-44.4954 28.4514 -43.8717 28.7847 -43.1928 28.9198C-42.5139 29.0548 -41.8101 28.9855 -41.1706 28.7206C-40.5311 28.4557 -39.9844 28.0071 -39.5999 27.4315C-39.2153 26.8559 -39.01 26.1792 -39.01 25.487C-39.01 24.5588 -39.3787 23.6685 -40.0351 23.0121C-40.6915 22.3558 -41.5817 21.987 -42.51 21.987ZM-42.5 16C-43.7856 16 -45.0423 15.6188 -46.1112 14.9046C-47.1801 14.1903 -48.0132 13.1752 -48.5052 11.9875C-48.9972 10.7997 -49.1259 9.4928 -48.8751 8.23192C-48.6243 6.97105 -48.0052 5.81286 -47.0962 4.90382C-46.1872 3.99478 -45.029 3.37571 -43.7681 3.12491C-42.5072 2.8741 -41.2003 3.00282 -40.0126 3.49479C-38.8248 3.98676 -37.8097 4.81989 -37.0954 5.8888C-36.3812 6.95772 -36 8.21443 -36 9.50001C-36 11.2239 -36.6848 12.8772 -37.9038 14.0962C-39.1228 15.3152 -40.7761 16 -42.5 16ZM-42.51 5.98701C-43.2022 5.98701 -43.8789 6.19228 -44.4545 6.57687C-45.0301 6.96145 -45.4787 7.50808 -45.7436 8.14762C-46.0085 8.78716 -46.0778 9.49089 -45.9427 10.1698C-45.8077 10.8488 -45.4744 11.4724 -44.9849 11.9619C-44.4954 12.4514 -43.8717 12.7847 -43.1928 12.9198C-42.5139 13.0548 -41.8101 12.9855 -41.1706 12.7206C-40.5311 12.4557 -39.9844 12.0071 -39.5999 11.4315C-39.2153 10.8559 -39.01 10.1792 -39.01 9.48701C-39.01 8.55875 -39.3787 7.66852 -40.0351 7.01214C-40.6915 6.35576 -41.5817 5.98701 -42.51 5.98701ZM-29.5 40H-5.5C-5.10218 40 -4.72065 40.158 -4.43935 40.4394C-4.15804 40.7207 -4 41.1022 -4 41.5C-4 41.8978 -4.15804 42.2794 -4.43935 42.5607C-4.72065 42.842 -5.10218 43 -5.5 43H-29.5C-29.8978 43 -30.2793 42.842 -30.5607 42.5607C-30.842 42.2794 -31 41.8978 -31 41.5C-31 41.1022 -30.842 40.7207 -30.5607 40.4394C-30.2793 40.158 -29.8978 40 -29.5 40ZM95 48H53C51.9391 48 50.9217 47.5786 50.1716 46.8284C49.4214 46.0783 49 45.0609 49 44V19.75C49 19.707 49 19.667 49 19.624V18C49 16.9391 49.4214 15.9217 50.1716 15.1716C50.9217 14.4214 51.9391 14 53 14H58V5.00001C58 4.20436 58.3161 3.4413 58.8787 2.87869C59.4413 2.31608 60.2044 2.00001 61 2.00001H87C87.7956 2.00001 88.5587 2.31608 89.1213 2.87869C89.6839 3.4413 90 4.20436 90 5.00001V14H95C96.0609 14 97.0783 14.4214 97.8284 15.1716C98.5786 15.9217 99 16.9391 99 18V44C99 45.0609 98.5786 46.0783 97.8284 46.8284C97.0783 47.5786 96.0609 48 95 48ZM53 17C52.7348 17 52.4804 17.1054 52.2929 17.2929C52.1054 17.4804 52 17.7348 52 18V18.627L58 22.922V17H53ZM87 5.00001H61V25.069L73.948 34.337L87 24.994V5.00001ZM96 18C96 17.7348 95.8946 17.4804 95.7071 17.2929C95.5196 17.1054 95.2652 17 95 17H90V22.847L96 18.552V18ZM96 22.6L75.13 37.537C74.8158 37.8495 74.3907 38.0249 73.9475 38.0249C73.5044 38.0249 73.0792 37.8495 72.765 37.537L52 22.673V44C52 44.2652 52.1054 44.5196 52.2929 44.7071C52.4804 44.8947 52.7348 45 53 45H95C95.2652 45 95.5196 44.8947 95.7071 44.7071C95.8946 44.5196 96 44.2652 96 44V22.6ZM72.767 22.986C72.5416 22.9873 72.3182 22.9438 72.1098 22.8579C71.9014 22.7721 71.7121 22.6457 71.553 22.486L66.478 16.921C66.3186 16.762 66.192 16.5732 66.1056 16.3654C66.0191 16.1575 65.9744 15.9346 65.9741 15.7095C65.9738 15.4844 66.0178 15.2614 66.1037 15.0532C66.1895 14.8451 66.3155 14.6559 66.4745 14.4965C66.6335 14.3371 66.8223 14.2105 67.0302 14.1241C67.238 14.0376 67.4609 13.993 67.686 13.9926C67.9112 13.9923 68.1342 14.0363 68.3423 14.1222C68.5504 14.208 68.7396 14.334 68.899 14.493L72.817 18.793L80.058 11.484C80.2174 11.325 80.4066 11.199 80.6147 11.1132C80.8228 11.0273 81.0458 10.9833 81.271 10.9836C81.4961 10.984 81.719 11.0286 81.9268 11.1151C82.1347 11.2015 82.3235 11.3281 82.4825 11.4875C82.6415 11.6469 82.7675 11.8361 82.8533 12.0442C82.9392 12.2524 82.9832 12.4754 82.9829 12.7005C82.9826 12.9256 82.9379 13.1485 82.8514 13.3564C82.765 13.5642 82.6384 13.753 82.479 13.912L73.979 22.49C73.8196 22.6483 73.6305 22.7735 73.4225 22.8583C73.2144 22.9431 72.9916 22.9858 72.767 22.984V22.986ZM142 49H108C106.939 49 105.922 48.5786 105.172 47.8284C104.421 47.0783 104 46.0609 104 45V38H102.5C102.102 38 101.721 37.842 101.439 37.5607C101.158 37.2794 101 36.8978 101 36.5C101 36.1022 101.158 35.7207 101.439 35.4394C101.721 35.158 102.102 35 102.5 35H104V26H102.5C102.102 26 101.721 25.842 101.439 25.5607C101.158 25.2794 101 24.8978 101 24.5C101 24.1022 101.158 23.7207 101.439 23.4394C101.721 23.158 102.102 23 102.5 23H104V14H102.5C102.303 14 102.108 13.9612 101.926 13.8858C101.744 13.8104 101.579 13.7 101.439 13.5607C101.3 13.4214 101.19 13.256 101.114 13.074C101.039 12.892 101 12.697 101 12.5C101 12.303 101.039 12.108 101.114 11.926C101.19 11.744 101.3 11.5786 101.439 11.4394C101.579 11.3001 101.744 11.1896 101.926 11.1142C102.108 11.0388 102.303 11 102.5 11H104V4.00001C104 2.93915 104.421 1.92173 105.172 1.17158C105.922 0.421439 106.939 1.12576e-05 108 1.12576e-05H142C143.061 1.12576e-05 144.078 0.421439 144.828 1.17158C145.579 1.92173 146 2.93915 146 4.00001V45C146 46.0609 145.579 47.0783 144.828 47.8284C144.078 48.5786 143.061 49 142 49ZM112 3.00001H108C107.735 3.00001 107.48 3.10537 107.293 3.2929C107.105 3.48044 107 3.73479 107 4.00001V11H107.5C107.697 11 107.892 11.0388 108.074 11.1142C108.256 11.1896 108.421 11.3001 108.561 11.4394C108.7 11.5786 108.81 11.744 108.886 11.926C108.961 12.108 109 12.303 109 12.5C109 12.697 108.961 12.892 108.886 13.074C108.81 13.256 108.7 13.4214 108.561 13.5607C108.421 13.7 108.256 13.8104 108.074 13.8858C107.892 13.9612 107.697 14 107.5 14H107V23H107.5C107.898 23 108.279 23.158 108.561 23.4394C108.842 23.7207 109 24.1022 109 24.5C109 24.8978 108.842 25.2794 108.561 25.5607C108.279 25.842 107.898 26 107.5 26H107V35H107.5C107.898 35 108.279 35.158 108.561 35.4394C108.842 35.7207 109 36.1022 109 36.5C109 36.8978 108.842 37.2794 108.561 37.5607C108.279 37.842 107.898 38 107.5 38H107V45C107 45.2652 107.105 45.5196 107.293 45.7071C107.48 45.8947 107.735 46 108 46H112V3.00001ZM143 4.00001C143 3.73479 142.895 3.48044 142.707 3.2929C142.52 3.10537 142.265 3.00001 142 3.00001H115V46H142C142.265 46 142.52 45.8947 142.707 45.7071C142.895 45.5196 143 45.2652 143 45V4.00001ZM136.5 21H121.5C121.102 21 120.721 20.842 120.439 20.5607C120.158 20.2794 120 19.8978 120 19.5C120 19.1022 120.158 18.7207 120.439 18.4394C120.721 18.158 121.102 18 121.5 18H136.5C136.898 18 137.279 18.158 137.561 18.4394C137.842 18.7207 138 19.1022 138 19.5C138 19.8978 137.842 20.2794 137.561 20.5607C137.279 20.842 136.898 21 136.5 21ZM136.5 14H121.5C121.303 14 121.108 13.9612 120.926 13.8858C120.744 13.8104 120.579 13.7 120.439 13.5607C120.3 13.4214 120.19 13.256 120.114 13.074C120.039 12.892 120 12.697 120 12.5C120 12.303 120.039 12.108 120.114 11.926C120.19 11.744 120.3 11.5786 120.439 11.4394C120.579 11.3001 120.744 11.1896 120.926 11.1142C121.108 11.0388 121.303 11 121.5 11H136.5C136.697 11 136.892 11.0388 137.074 11.1142C137.256 11.1896 137.421 11.3001 137.561 11.4394C137.7 11.5786 137.81 11.744 137.886 11.926C137.961 12.108 138 12.303 138 12.5C138 12.697 137.961 12.892 137.886 13.074C137.81 13.256 137.7 13.4214 137.561 13.5607C137.421 13.7 137.256 13.8104 137.074 13.8858C136.892 13.9612 136.697 14 136.5 14ZM121.5 25H128.5C128.898 25 129.279 25.158 129.561 25.4394C129.842 25.7207 130 26.1022 130 26.5C130 26.8978 129.842 27.2794 129.561 27.5607C129.279 27.842 128.898 28 128.5 28H121.5C121.102 28 120.721 27.842 120.439 27.5607C120.158 27.2794 120 26.8978 120 26.5C120 26.1022 120.158 25.7207 120.439 25.4394C120.721 25.158 121.102 25 121.5 25ZM47.019 14.716L47 15.222L43.633 28.333C43.4271 28.8053 43.113 29.2226 42.716 29.551C42.2999 29.8141 41.8243 29.9685 41.333 30H15.152C14.8585 29.9811 14.5717 29.9038 14.3085 29.7726C14.0452 29.6414 13.8108 29.459 13.619 29.236C13.3191 28.8879 13.0752 28.4952 12.896 28.072L8 7.01001H4.666V7.00001H1.5C1.30302 7.00001 1.10797 6.96121 0.92598 6.88583C0.743991 6.81045 0.578634 6.69996 0.439346 6.56067C0.300058 6.42138 0.189564 6.25602 0.114182 6.07404C0.0387995 5.89205 0 5.69699 0 5.50001C0 5.30303 0.0387995 5.10797 0.114182 4.92599C0.189564 4.744 0.300058 4.57864 0.439346 4.43935C0.578634 4.30006 0.743991 4.18957 0.92598 4.11419C1.10797 4.03881 1.30302 4.00001 1.5 4.00001H9.5C9.83707 4.00284 10.163 4.1208 10.4239 4.33433C10.6847 4.54787 10.8647 4.84414 10.934 5.17401L10.966 5.18701L12.629 12.976L45.355 12.989L45.365 13H45.375C45.8142 13 46.2354 13.1745 46.546 13.485C46.8565 13.7956 47.031 14.2168 47.031 14.656C47.031 14.677 47.02 14.7 47.019 14.716ZM16 27H41L43.812 16H13.375L16 27ZM19.5 33C20.7856 33 22.0423 33.3812 23.1112 34.0955C24.1801 34.8097 25.0132 35.8248 25.5052 37.0126C25.9972 38.2003 26.1259 39.5072 25.8751 40.7681C25.6243 42.029 25.0052 43.1872 24.0962 44.0962C23.1872 45.0052 22.029 45.6243 20.7681 45.8751C19.5072 46.1259 18.2003 45.9972 17.0125 45.5052C15.8248 45.0133 14.8097 44.1801 14.0955 43.1112C13.3812 42.0423 13 40.7856 13 39.5C13 37.7761 13.6848 36.1228 14.9038 34.9038C16.1228 33.6848 17.7761 33 19.5 33ZM19.5 43C20.1922 43 20.8689 42.7947 21.4445 42.4102C22.0201 42.0256 22.4687 41.4789 22.7336 40.8394C22.9985 40.1999 23.0678 39.4961 22.9327 38.8172C22.7977 38.1383 22.4644 37.5146 21.9749 37.0251C21.4854 36.5357 20.8618 36.2023 20.1828 36.0673C19.5039 35.9322 18.8002 36.0015 18.1606 36.2664C17.5211 36.5313 16.9744 36.9799 16.5898 37.5555C16.2053 38.1311 16 38.8078 16 39.5C16 40.4283 16.3687 41.3185 17.0251 41.9749C17.6815 42.6313 18.5717 43 19.5 43ZM36.5 33C37.7856 33 39.0423 33.3812 40.1112 34.0955C41.1801 34.8097 42.0132 35.8248 42.5052 37.0126C42.9972 38.2003 43.1259 39.5072 42.8751 40.7681C42.6243 42.029 42.0052 43.1872 41.0962 44.0962C40.1872 45.0052 39.029 45.6243 37.7681 45.8751C36.5072 46.1259 35.2003 45.9972 34.0125 45.5052C32.8248 45.0133 31.8097 44.1801 31.0955 43.1112C30.3812 42.0423 30 40.7856 30 39.5C30 37.7761 30.6848 36.1228 31.9038 34.9038C33.1228 33.6848 34.7761 33 36.5 33ZM36.5 43C37.1922 43 37.8689 42.7947 38.4445 42.4102C39.0201 42.0256 39.4687 41.4789 39.7336 40.8394C39.9985 40.1999 40.0678 39.4961 39.9327 38.8172C39.7977 38.1383 39.4644 37.5146 38.9749 37.0251C38.4854 36.5357 37.8618 36.2023 37.1828 36.0673C36.5039 35.9322 35.8002 36.0015 35.1606 36.2664C34.5211 36.5313 33.9744 36.9799 33.5898 37.5555C33.2053 38.1311 33 38.8078 33 39.5C33 40.4283 33.3687 41.3185 34.0251 41.9749C34.6815 42.6313 35.5717 43 36.5 43Z" fill="#FBFBFB"/>
</g>
<defs>
<clipPath id="clip0_1_2">
<rect width="400" height="50" fill="white" transform="translate(-251)"/>
</clipPath>
</defs>
</svg>
