<svg width="50" height="50" viewBox="0 0 50 50" fill="none" xmlns="http://www.w3.org/2000/svg">
<g clip-path="url(#clip0_1_2)">
<path fill-rule="evenodd" clip-rule="evenodd" d="M-350 1.12576e-05H50V50H-350V1.12576e-05ZM-304.7 46.97C-304.783 46.9857 -304.867 46.994 -304.952 46.995C-304.967 46.995 -304.981 46.995 -304.996 46.995V46.993C-305.323 47.0053 -305.645 46.9078 -305.911 46.716L-310.017 43.433L-314.123 46.716H-314.13C-314.264 46.8107 -314.413 46.882 -314.571 46.927C-314.615 46.941 -314.657 46.962 -314.702 46.972C-314.906 46.9932 -315.113 46.9932 -315.317 46.972C-315.362 46.962 -315.403 46.941 -315.448 46.927C-315.606 46.882 -315.755 46.8107 -315.889 46.716H-315.896L-320.002 43.433L-324.108 46.716H-324.115C-324.249 46.8107 -324.398 46.882 -324.556 46.927C-324.601 46.941 -324.642 46.962 -324.687 46.972C-324.891 46.9932 -325.098 46.9932 -325.302 46.972C-325.347 46.962 -325.388 46.941 -325.433 46.927C-325.591 46.882 -325.74 46.8107 -325.874 46.716H-325.881L-329.987 43.433L-334.1 46.716H-334.107C-334.241 46.8107 -334.39 46.882 -334.548 46.927C-334.593 46.941 -334.634 46.962 -334.679 46.972C-334.78 46.9881 -334.883 46.9934 -334.986 46.988C-335.089 46.9935 -335.192 46.9881 -335.294 46.972C-335.339 46.962 -335.38 46.941 -335.425 46.927C-335.583 46.882 -335.732 46.8107 -335.866 46.716H-335.873L-339.979 43.433L-344.085 46.716C-344.351 46.9077 -344.673 47.0052 -345 46.993V47C-345.015 47 -345.029 47 -345.044 47C-345.13 46.9976 -345.216 46.9876 -345.3 46.97C-346.038 46.8981 -346.723 46.5543 -347.222 46.0054C-347.721 45.4565 -347.999 44.7418 -348 44V5.00001C-348 4.20436 -347.684 3.4413 -347.121 2.87869C-346.559 2.31608 -345.796 2.00001 -345 2.00001H-305C-304.204 2.00001 -303.441 2.31608 -302.879 2.87869C-302.316 3.4413 -302 4.20436 -302 5.00001V44C-302.001 44.7418 -302.279 45.4565 -302.778 46.0054C-303.277 46.5543 -303.962 46.8981 -304.7 46.97ZM-305 42V6.00001C-305 5.73479 -305.105 5.48044 -305.293 5.2929C-305.48 5.10537 -305.735 5.00001 -306 5.00001H-344C-344.265 5.00001 -344.52 5.10537 -344.707 5.2929C-344.895 5.48044 -345 5.73479 -345 6.00001V43.6L-340.872 40.3C-340.861 40.292 -340.849 40.291 -340.838 40.284C-340.72 40.2043 -340.592 40.1423 -340.456 40.1C-340.398 40.0756 -340.339 40.0549 -340.278 40.038C-340.179 40.0228 -340.078 40.0178 -339.978 40.023C-339.878 40.0178 -339.777 40.0228 -339.678 40.038C-339.617 40.0549 -339.558 40.0756 -339.5 40.1C-339.364 40.142 -339.236 40.2037 -339.118 40.283C-339.107 40.291 -339.094 40.291 -339.084 40.299L-334.984 43.577L-330.884 40.299C-330.873 40.291 -330.861 40.29 -330.85 40.283C-330.733 40.2039 -330.605 40.1422 -330.47 40.1C-330.412 40.0756 -330.353 40.0549 -330.292 40.038C-330.093 40.0174 -329.891 40.0174 -329.692 40.038C-329.631 40.0549 -329.572 40.0756 -329.514 40.1C-329.378 40.142 -329.25 40.2037 -329.132 40.283C-329.121 40.291 -329.108 40.291 -329.098 40.299L-325 43.573L-320.9 40.3C-320.889 40.292 -320.877 40.291 -320.866 40.284C-320.748 40.2047 -320.62 40.143 -320.484 40.101C-320.426 40.0766 -320.367 40.0559 -320.306 40.039C-320.107 40.0184 -319.905 40.0184 -319.706 40.039C-319.645 40.0559 -319.586 40.0766 -319.528 40.101C-319.392 40.143 -319.264 40.2047 -319.146 40.284C-319.135 40.292 -319.122 40.292 -319.112 40.3L-315.012 43.578L-310.912 40.3C-310.901 40.292 -310.889 40.291 -310.878 40.284C-310.762 40.2047 -310.634 40.1427 -310.5 40.1C-310.442 40.0756 -310.383 40.0549 -310.322 40.038C-310.123 40.0174 -309.921 40.0174 -309.722 40.038C-309.661 40.0549 -309.602 40.0756 -309.544 40.1C-309.408 40.142 -309.28 40.2037 -309.162 40.283C-309.151 40.291 -309.138 40.291 -309.128 40.299L-305 43.6V42ZM-315 31H-328C-328.265 31 -328.52 30.8947 -328.707 30.7071C-328.895 30.5196 -329 30.2652 -329 30V29C-329 28.7348 -328.895 28.4804 -328.707 28.2929C-328.52 28.1054 -328.265 28 -328 28H-315C-314.735 28 -314.48 28.1054 -314.293 28.2929C-314.105 28.4804 -314 28.7348 -314 29V30C-314 30.2652 -314.105 30.5196 -314.293 30.7071C-314.48 30.8947 -314.735 31 -315 31ZM-315 24H-328C-328.265 24 -328.52 23.8947 -328.707 23.7071C-328.895 23.5196 -329 23.2652 -329 23V22C-329 21.7348 -328.895 21.4804 -328.707 21.2929C-328.52 21.1054 -328.265 21 -328 21H-315C-314.735 21 -314.48 21.1054 -314.293 21.2929C-314.105 21.4804 -314 21.7348 -314 22V23C-314 23.2652 -314.105 23.5196 -314.293 23.7071C-314.48 23.8947 -314.735 24 -315 24ZM-315 17H-328C-328.265 17 -328.52 16.8947 -328.707 16.7071C-328.895 16.5196 -329 16.2652 -329 16V15C-329 14.7348 -328.895 14.4804 -328.707 14.2929C-328.52 14.1054 -328.265 14 -328 14H-315C-314.735 14 -314.48 14.1054 -314.293 14.2929C-314.105 14.4804 -314 14.7348 -314 15V16C-314 16.2652 -314.105 16.5196 -314.293 16.7071C-314.48 16.8947 -314.735 17 -315 17ZM-333 31H-335C-335.265 31 -335.52 30.8947 -335.707 30.7071C-335.895 30.5196 -336 30.2652 -336 30V29C-336 28.7348 -335.895 28.4804 -335.707 28.2929C-335.52 28.1054 -335.265 28 -335 28H-333C-332.735 28 -332.48 28.1054 -332.293 28.2929C-332.105 28.4804 -332 28.7348 -332 29V30C-332 30.2652 -332.105 30.5196 -332.293 30.7071C-332.48 30.8947 -332.735 31 -333 31ZM-333 24H-335C-335.265 24 -335.52 23.8947 -335.707 23.7071C-335.895 23.5196 -336 23.2652 -336 23V22C-336 21.7348 -335.895 21.4804 -335.707 21.2929C-335.52 21.1054 -335.265 21 -335 21H-333C-332.735 21 -332.48 21.1054 -332.293 21.2929C-332.105 21.4804 -332 21.7348 -332 22V23C-332 23.2652 -332.105 23.5196 -332.293 23.7071C-332.48 23.8947 -332.735 24 -333 24ZM-333 17H-335C-335.265 17 -335.52 16.8947 -335.707 16.7071C-335.895 16.5196 -336 16.2652 -336 16V15C-336 14.7348 -335.895 14.4804 -335.707 14.2929C-335.52 14.1054 -335.265 14 -335 14H-333C-332.735 14 -332.48 14.1054 -332.293 14.2929C-332.105 14.4804 -332 14.7348 -332 15V16C-332 16.2652 -332.105 16.5196 -332.293 16.7071C-332.48 16.8947 -332.735 17 -333 17ZM-255 45H-295C-296.326 45 -297.598 44.4732 -298.536 43.5355C-299.473 42.5979 -300 41.3261 -300 40V10C-300 8.67393 -299.473 7.40216 -298.536 6.46448C-297.598 5.5268 -296.326 5.00001 -295 5.00001H-255C-253.674 5.00001 -252.402 5.5268 -251.464 6.46448C-250.527 7.40216 -250 8.67393 -250 10V40C-250 41.3261 -250.527 42.5979 -251.464 43.5355C-252.402 44.4732 -253.674 45 -255 45ZM-295 42H-255C-254.47 42 -253.961 41.7893 -253.586 41.4142C-253.211 41.0392 -253 40.5304 -253 40V23H-297V40C-297 40.5304 -296.789 41.0392 -296.414 41.4142C-296.039 41.7893 -295.53 42 -295 42ZM-253 10C-253 9.46958 -253.211 8.96087 -253.586 8.5858C-253.961 8.21073 -254.47 8.00001 -255 8.00001H-295C-295.53 8.00001 -296.039 8.21073 -296.414 8.5858C-296.789 8.96087 -297 9.46958 -297 10V13H-253V10ZM-297 16V20H-253V16H-297ZM-290.5 34H-286.5C-286.102 34 -285.721 34.158 -285.439 34.4394C-285.158 34.7207 -285 35.1022 -285 35.5C-285 35.8978 -285.158 36.2794 -285.439 36.5607C-285.721 36.842 -286.102 37 -286.5 37H-290.5C-290.898 37 -291.279 36.842 -291.561 36.5607C-291.842 36.2794 -292 35.8978 -292 35.5C-292 35.1022 -291.842 34.7207 -291.561 34.4394C-291.279 34.158 -290.898 34 -290.5 34ZM-280.5 34H-276.5C-276.102 34 -275.721 34.158 -275.439 34.4394C-275.158 34.7207 -275 35.1022 -275 35.5C-275 35.8978 -275.158 36.2794 -275.439 36.5607C-275.721 36.842 -276.102 37 -276.5 37H-280.5C-280.898 37 -281.279 36.842 -281.561 36.5607C-281.842 36.2794 -282 35.8978 -282 35.5C-282 35.1022 -281.842 34.7207 -281.561 34.4394C-281.279 34.158 -280.898 34 -280.5 34ZM-225 50C-229.945 50 -234.778 48.5338 -238.889 45.7868C-243 43.0397 -246.205 39.1352 -248.097 34.5671C-249.989 29.9989 -250.484 24.9723 -249.52 20.1228C-248.555 15.2732 -246.174 10.8187 -242.678 7.32234C-239.181 3.82603 -234.727 1.44501 -229.877 0.480379C-225.028 -0.484251 -220.001 0.0108321 -215.433 1.90302C-210.865 3.79521 -206.96 6.99953 -204.213 11.1108C-201.466 15.222 -200 20.0555 -200 25C-200 31.6304 -202.634 37.9893 -207.322 42.6777C-212.011 47.3661 -218.37 50 -225 50ZM-214.155 44.127C-216.206 43.4799 -218.1 42.4152 -219.719 41C-220.924 39.87 -221.4 37.78 -221.587 36.39C-223.698 37.1694 -226.012 37.2046 -228.146 36.49C-228.28 38.1496 -228.928 39.7262 -230 41C-231.67 42.4544 -233.627 43.5407 -235.745 44.188C-232.447 46.0421 -228.725 47.0109 -224.942 47.0002C-221.159 46.9895 -217.442 45.9997 -214.155 44.127ZM-225 33.875C-224.081 33.875 -223.17 33.6939 -222.321 33.3422C-221.472 32.9904 -220.7 32.4748 -220.05 31.8248C-219.4 31.1747 -218.885 30.4031 -218.533 29.5538C-218.181 28.7045 -218 27.7943 -218 26.875V21.125C-218 19.2685 -218.737 17.488 -220.05 16.1753C-221.363 14.8625 -223.143 14.125 -225 14.125C-226.857 14.125 -228.637 14.8625 -229.95 16.1753C-231.262 17.488 -232 19.2685 -232 21.125V26.875C-232 27.7943 -231.819 28.7045 -231.467 29.5538C-231.115 30.4031 -230.6 31.1747 -229.95 31.8248C-228.637 33.1375 -226.857 33.875 -225 33.875ZM-225 3.00001C-229.529 3.00004 -233.949 4.39816 -237.654 7.00343C-241.359 9.6087 -244.17 13.2941 -245.702 17.5565C-247.235 21.8189 -247.414 26.4504 -246.216 30.8186C-245.018 35.1868 -242.501 39.0787 -239.009 41.963C-236.675 41.6885 -234.474 40.73 -232.683 39.208C-231.621 38.065 -231.009 36.5771 -230.957 35.018C-232.211 34.0906 -233.23 32.8822 -233.932 31.4897C-234.634 30.0972 -235 28.5595 -235 27V21C-235 18.3478 -233.946 15.8043 -232.071 13.9289C-230.196 12.0536 -227.652 11 -225 11C-222.348 11 -219.804 12.0536 -217.929 13.9289C-216.054 15.8043 -215 18.3478 -215 21V27C-214.999 28.5039 -215.339 29.9884 -215.993 31.3426C-216.647 32.6968 -217.599 33.8856 -218.777 34.82C-218.759 36.448 -218.138 38.0115 -217.035 39.209C-215.312 40.6857 -213.197 41.629 -210.947 41.924C-207.467 39.0335 -204.962 35.1404 -203.775 30.7751C-202.587 26.4097 -202.774 21.7844 -204.311 17.5292C-205.847 13.274 -208.658 9.59591 -212.36 6.99597C-216.062 4.39603 -220.476 3.00068 -225 3.00001ZM-157 50H-193C-194.061 50 -195.078 49.5786 -195.828 48.8284C-196.579 48.0783 -197 47.0609 -197 46V8.00001C-197 6.93915 -196.579 5.92173 -195.828 5.17158C-195.078 4.42144 -194.061 4.00001 -193 4.00001H-187.767C-187.444 2.85092 -186.755 1.83859 -185.804 1.11668C-184.854 0.39477 -183.694 0.00270972 -182.5 1.12576e-05H-167.5C-166.306 0.00270972 -165.146 0.39477 -164.196 1.11668C-163.245 1.83859 -162.556 2.85092 -162.233 4.00001H-157C-155.939 4.00001 -154.922 4.42144 -154.172 5.17158C-153.421 5.92173 -153 6.93915 -153 8.00001V46C-153 47.0609 -153.421 48.0783 -154.172 48.8284C-154.922 49.5786 -155.939 50 -157 50ZM-167.5 3.00001H-182.5C-183.163 3.00001 -183.799 3.2634 -184.268 3.73224C-184.737 4.20109 -185 4.83697 -185 5.50001C-185 6.16305 -184.737 6.79894 -184.268 7.26778C-183.799 7.73662 -183.163 8.00001 -182.5 8.00001H-167.5C-166.837 8.00001 -166.201 7.73662 -165.732 7.26778C-165.263 6.79894 -165 6.16305 -165 5.50001C-165 4.83697 -165.263 4.20109 -165.732 3.73224C-166.201 3.2634 -166.837 3.00001 -167.5 3.00001ZM-156 8.00001C-156 7.73479 -156.105 7.48044 -156.293 7.2929C-156.48 7.10537 -156.735 7.00001 -157 7.00001H-162.233C-162.556 8.1491 -163.245 9.16144 -164.196 9.88334C-165.146 10.6053 -166.306 10.9973 -167.5 11H-182.5C-183.694 10.9975 -184.854 10.6055 -185.805 9.88355C-186.755 9.16161 -187.444 8.14919 -187.767 7.00001H-193C-193.265 7.00001 -193.52 7.10537 -193.707 7.2929C-193.895 7.48044 -194 7.73479 -194 8.00001V46C-194 46.2652 -193.895 46.5196 -193.707 46.7071C-193.52 46.8947 -193.265 47 -193 47H-157C-156.735 47 -156.48 46.8947 -156.293 46.7071C-156.105 46.5196 -156 46.2652 -156 46V8.00001ZM-166.5 40H-174.5C-174.898 40 -175.279 39.842 -175.561 39.5607C-175.842 39.2794 -176 38.8978 -176 38.5C-176 38.1022 -175.842 37.7207 -175.561 37.4394C-175.279 37.158 -174.898 37 -174.5 37H-166.5C-166.102 37 -165.721 37.158 -165.439 37.4394C-165.158 37.7207 -165 38.1022 -165 38.5C-165 38.8978 -165.158 39.2794 -165.439 39.5607C-165.721 39.842 -166.102 40 -166.5 40ZM-166.5 33H-174.5C-174.898 33 -175.279 32.842 -175.561 32.5607C-175.842 32.2794 -176 31.8978 -176 31.5C-176 31.1022 -175.842 30.7207 -175.561 30.4394C-175.279 30.158 -174.898 30 -174.5 30H-166.5C-166.102 30 -165.721 30.158 -165.439 30.4394C-165.158 30.7207 -165 31.1022 -165 31.5C-165 31.8978 -165.158 32.2794 -165.439 32.5607C-165.721 32.842 -166.102 33 -166.5 33ZM-166.5 26H-174.5C-174.898 26 -175.279 25.842 -175.561 25.5607C-175.842 25.2794 -176 24.8978 -176 24.5C-176 24.1022 -175.842 23.7207 -175.561 23.4394C-175.279 23.158 -174.898 23 -174.5 23H-166.5C-166.102 23 -165.721 23.158 -165.439 23.4394C-165.158 23.7207 -165 24.1022 -165 24.5C-165 24.8978 -165.158 25.2794 -165.439 25.5607C-165.721 25.842 -166.102 26 -166.5 26ZM-166.5 19H-174.5C-174.898 19 -175.279 18.842 -175.561 18.5607C-175.842 18.2794 -176 17.8978 -176 17.5C-176 17.1022 -175.842 16.7207 -175.561 16.4394C-175.279 16.158 -174.898 16 -174.5 16H-166.5C-166.102 16 -165.721 16.158 -165.439 16.4394C-165.158 16.7207 -165 17.1022 -165 17.5C-165 17.8978 -165.158 18.2794 -165.439 18.5607C-165.721 18.842 -166.102 19 -166.5 19ZM-181.5 40H-183.5C-183.898 40 -184.279 39.842 -184.561 39.5607C-184.842 39.2794 -185 38.8978 -185 38.5C-185 38.1022 -184.842 37.7207 -184.561 37.4394C-184.279 37.158 -183.898 37 -183.5 37H-181.5C-181.102 37 -180.721 37.158 -180.439 37.4394C-180.158 37.7207 -180 38.1022 -180 38.5C-180 38.8978 -180.158 39.2794 -180.439 39.5607C-180.721 39.842 -181.102 40 -181.5 40ZM-181.5 33H-183.5C-183.898 33 -184.279 32.842 -184.561 32.5607C-184.842 32.2794 -185 31.8978 -185 31.5C-185 31.1022 -184.842 30.7207 -184.561 30.4394C-184.279 30.158 -183.898 30 -183.5 30H-181.5C-181.102 30 -180.721 30.158 -180.439 30.4394C-180.158 30.7207 -180 31.1022 -180 31.5C-180 31.8978 -180.158 32.2794 -180.439 32.5607C-180.721 32.842 -181.102 33 -181.5 33ZM-181.5 26H-183.5C-183.898 26 -184.279 25.842 -184.561 25.5607C-184.842 25.2794 -185 24.8978 -185 24.5C-185 24.1022 -184.842 23.7207 -184.561 23.4394C-184.279 23.158 -183.898 23 -183.5 23H-181.5C-181.102 23 -180.721 23.158 -180.439 23.4394C-180.158 23.7207 -180 24.1022 -180 24.5C-180 24.8978 -180.158 25.2794 -180.439 25.5607C-180.721 25.842 -181.102 26 -181.5 26ZM-181.5 19H-183.5C-183.898 19 -184.279 18.842 -184.561 18.5607C-184.842 18.2794 -185 17.8978 -185 17.5C-185 17.1022 -184.842 16.7207 -184.561 16.4394C-184.279 16.158 -183.898 16 -183.5 16H-181.5C-181.102 16 -180.721 16.158 -180.439 16.4394C-180.158 16.7207 -180 17.1022 -180 17.5C-180 17.8978 -180.158 18.2794 -180.439 18.5607C-180.721 18.842 -181.102 19 -181.5 19ZM-104.5 27H-128.5C-128.898 27 -129.279 26.842 -129.561 26.5607C-129.842 26.2794 -130 25.8978 -130 25.5C-130 25.1022 -129.842 24.7207 -129.561 24.4394C-129.279 24.158 -128.898 24 -128.5 24H-104.5C-104.102 24 -103.721 24.158 -103.439 24.4394C-103.158 24.7207 -103 25.1022 -103 25.5C-103 25.8978 -103.158 26.2794 -103.439 26.5607C-103.721 26.842 -104.102 27 -104.5 27ZM-104.5 11H-128.5C-128.898 11 -129.279 10.842 -129.561 10.5607C-129.842 10.2794 -130 9.89784 -130 9.50001C-130 9.10219 -129.842 8.72066 -129.561 8.43935C-129.279 8.15805 -128.898 8.00001 -128.5 8.00001H-104.5C-104.102 8.00001 -103.721 8.15805 -103.439 8.43935C-103.158 8.72066 -103 9.10219 -103 9.50001C-103 9.89784 -103.158 10.2794 -103.439 10.5607C-103.721 10.842 -104.102 11 -104.5 11ZM-141.5 48C-142.786 48 -144.042 47.6188 -145.111 46.9046C-146.18 46.1903 -147.013 45.1752 -147.505 43.9875C-147.997 42.7997 -148.126 41.4928 -147.875 40.2319C-147.624 38.971 -147.005 37.8129 -146.096 36.9038C-145.187 35.9948 -144.029 35.3757 -142.768 35.1249C-141.507 34.8741 -140.2 35.0028 -139.013 35.4948C-137.825 35.9868 -136.81 36.8199 -136.095 37.8888C-135.381 38.9577 -135 40.2144 -135 41.5C-135 43.2239 -135.685 44.8772 -136.904 46.0962C-138.123 47.3152 -139.776 48 -141.5 48ZM-141.51 37.987C-142.202 37.987 -142.879 38.1923 -143.454 38.5769C-144.03 38.9615 -144.479 39.5081 -144.744 40.1476C-145.008 40.7872 -145.078 41.4909 -144.943 42.1698C-144.808 42.8488 -144.474 43.4724 -143.985 43.9619C-143.495 44.4514 -142.872 44.7847 -142.193 44.9198C-141.514 45.0548 -140.81 44.9855 -140.171 44.7206C-139.531 44.4557 -138.984 44.0071 -138.6 43.4315C-138.215 42.8559 -138.01 42.1792 -138.01 41.487C-138.01 40.5588 -138.379 39.6685 -139.035 39.0121C-139.692 38.3558 -140.582 37.987 -141.51 37.987ZM-141.5 32C-142.786 32 -144.042 31.6188 -145.111 30.9046C-146.18 30.1903 -147.013 29.1752 -147.505 27.9875C-147.997 26.7997 -148.126 25.4928 -147.875 24.2319C-147.624 22.971 -147.005 21.8129 -146.096 20.9038C-145.187 19.9948 -144.029 19.3757 -142.768 19.1249C-141.507 18.8741 -140.2 19.0028 -139.013 19.4948C-137.825 19.9868 -136.81 20.8199 -136.095 21.8888C-135.381 22.9577 -135 24.2144 -135 25.5C-135 27.2239 -135.685 28.8772 -136.904 30.0962C-138.123 31.3152 -139.776 32 -141.5 32ZM-141.51 21.987C-142.202 21.987 -142.879 22.1923 -143.454 22.5769C-144.03 22.9615 -144.479 23.5081 -144.744 24.1476C-145.008 24.7872 -145.078 25.4909 -144.943 26.1698C-144.808 26.8488 -144.474 27.4724 -143.985 27.9619C-143.495 28.4514 -142.872 28.7847 -142.193 28.9198C-141.514 29.0548 -140.81 28.9855 -140.171 28.7206C-139.531 28.4557 -138.984 28.0071 -138.6 27.4315C-138.215 26.8559 -138.01 26.1792 -138.01 25.487C-138.01 24.5588 -138.379 23.6685 -139.035 23.0121C-139.692 22.3558 -140.582 21.987 -141.51 21.987ZM-141.5 16C-142.786 16 -144.042 15.6188 -145.111 14.9046C-146.18 14.1903 -147.013 13.1752 -147.505 11.9875C-147.997 10.7997 -148.126 9.4928 -147.875 8.23192C-147.624 6.97105 -147.005 5.81286 -146.096 4.90382C-145.187 3.99478 -144.029 3.37571 -142.768 3.12491C-141.507 2.8741 -140.2 3.00282 -139.013 3.49479C-137.825 3.98676 -136.81 4.81989 -136.095 5.8888C-135.381 6.95772 -135 8.21443 -135 9.50001C-135 11.2239 -135.685 12.8772 -136.904 14.0962C-138.123 15.3152 -139.776 16 -141.5 16ZM-141.51 5.98701C-142.202 5.98701 -142.879 6.19228 -143.454 6.57687C-144.03 6.96145 -144.479 7.50808 -144.744 8.14762C-145.008 8.78716 -145.078 9.49089 -144.943 10.1698C-144.808 10.8488 -144.474 11.4724 -143.985 11.9619C-143.495 12.4514 -142.872 12.7847 -142.193 12.9198C-141.514 13.0548 -140.81 12.9855 -140.171 12.7206C-139.531 12.4557 -138.984 12.0071 -138.6 11.4315C-138.215 10.8559 -138.01 10.1792 -138.01 9.48701C-138.01 8.55875 -138.379 7.66852 -139.035 7.01214C-139.692 6.35576 -140.582 5.98701 -141.51 5.98701ZM-128.5 40H-104.5C-104.102 40 -103.721 40.158 -103.439 40.4394C-103.158 40.7207 -103 41.1022 -103 41.5C-103 41.8978 -103.158 42.2794 -103.439 42.5607C-103.721 42.842 -104.102 43 -104.5 43H-128.5C-128.898 43 -129.279 42.842 -129.561 42.5607C-129.842 42.2794 -130 41.8978 -130 41.5C-130 41.1022 -129.842 40.7207 -129.561 40.4394C-129.279 40.158 -128.898 40 -128.5 40ZM-4 48H-46C-47.0609 48 -48.0783 47.5786 -48.8284 46.8284C-49.5786 46.0783 -50 45.0609 -50 44V19.75C-50 19.707 -50 19.667 -50 19.624V18C-50 16.9391 -49.5786 15.9217 -48.8284 15.1716C-48.0783 14.4214 -47.0609 14 -46 14H-41V5.00001C-41 4.20436 -40.6839 3.4413 -40.1213 2.87869C-39.5587 2.31608 -38.7956 2.00001 -38 2.00001H-12C-11.2044 2.00001 -10.4413 2.31608 -9.87869 2.87869C-9.31608 3.4413 -9 4.20436 -9 5.00001V14H-4C-2.93913 14 -1.92172 14.4214 -1.17157 15.1716C-0.421424 15.9217 0 16.9391 0 18V44C0 45.0609 -0.421424 46.0783 -1.17157 46.8284C-1.92172 47.5786 -2.93913 48 -4 48ZM-46 17C-46.2652 17 -46.5196 17.1054 -46.7071 17.2929C-46.8946 17.4804 -47 17.7348 -47 18V18.627L-41 22.922V17H-46ZM-12 5.00001H-38V25.069L-25.052 34.337L-12 24.994V5.00001ZM-3 18C-3 17.7348 -3.10537 17.4804 -3.29291 17.2929C-3.48044 17.1054 -3.73478 17 -4 17H-9V22.847L-3 18.552V18ZM-3 22.6L-23.87 37.537C-24.1842 37.8495 -24.6093 38.0249 -25.0525 38.0249C-25.4956 38.0249 -25.9208 37.8495 -26.235 37.537L-47 22.673V44C-47 44.2652 -46.8946 44.5196 -46.7071 44.7071C-46.5196 44.8947 -46.2652 45 -46 45H-4C-3.73478 45 -3.48044 44.8947 -3.29291 44.7071C-3.10537 44.5196 -3 44.2652 -3 44V22.6ZM-26.233 22.986C-26.4584 22.9873 -26.6818 22.9438 -26.8902 22.8579C-27.0986 22.7721 -27.2879 22.6457 -27.447 22.486L-32.522 16.921C-32.6814 16.762 -32.808 16.5732 -32.8944 16.3654C-32.9809 16.1575 -33.0256 15.9346 -33.0259 15.7095C-33.0262 15.4844 -32.9822 15.2614 -32.8963 15.0532C-32.8105 14.8451 -32.6845 14.6559 -32.5255 14.4965C-32.3665 14.3371 -32.1777 14.2105 -31.9698 14.1241C-31.762 14.0376 -31.5391 13.993 -31.314 13.9926C-31.0888 13.9923 -30.8658 14.0363 -30.6577 14.1222C-30.4496 14.208 -30.2604 14.334 -30.101 14.493L-26.183 18.793L-18.942 11.484C-18.7826 11.325 -18.5934 11.199 -18.3853 11.1132C-18.1772 11.0273 -17.9542 10.9833 -17.729 10.9836C-17.5039 10.984 -17.281 11.0286 -17.0732 11.1151C-16.8653 11.2015 -16.6765 11.3281 -16.5175 11.4875C-16.3585 11.6469 -16.2325 11.8361 -16.1467 12.0442C-16.0608 12.2524 -16.0168 12.4754 -16.0171 12.7005C-16.0174 12.9256 -16.0621 13.1485 -16.1486 13.3564C-16.235 13.5642 -16.3616 13.753 -16.521 13.912L-25.021 22.49C-25.1804 22.6483 -25.3695 22.7735 -25.5775 22.8583C-25.7856 22.9431 -26.0084 22.9858 -26.233 22.984V22.986ZM43 49H9C7.93913 49 6.92172 48.5786 6.17157 47.8284C5.42142 47.0783 5 46.0609 5 45V38H3.5C3.10218 38 2.72064 37.842 2.43933 37.5607C2.15803 37.2794 2 36.8978 2 36.5C2 36.1022 2.15803 35.7207 2.43933 35.4394C2.72064 35.158 3.10218 35 3.5 35H5V26H3.5C3.10218 26 2.72064 25.842 2.43933 25.5607C2.15803 25.2794 2 24.8978 2 24.5C2 24.1022 2.15803 23.7207 2.43933 23.4394C2.72064 23.158 3.10218 23 3.5 23H5V14H3.5C3.30302 14 3.10795 13.9612 2.92596 13.8858C2.74398 13.8104 2.57862 13.7 2.43933 13.5607C2.30004 13.4214 2.18955 13.256 2.11417 13.074C2.03878 12.892 2 12.697 2 12.5C2 12.303 2.03878 12.108 2.11417 11.926C2.18955 11.744 2.30004 11.5786 2.43933 11.4394C2.57862 11.3001 2.74398 11.1896 2.92596 11.1142C3.10795 11.0388 3.30302 11 3.5 11H5V4.00001C5 2.93915 5.42142 1.92173 6.17157 1.17158C6.92172 0.421439 7.93913 1.12576e-05 9 1.12576e-05H43C44.0609 1.12576e-05 45.0783 0.421439 45.8284 1.17158C46.5786 1.92173 47 2.93915 47 4.00001V45C47 46.0609 46.5786 47.0783 45.8284 47.8284C45.0783 48.5786 44.0609 49 43 49ZM13 3.00001H9C8.73478 3.00001 8.48044 3.10537 8.29291 3.2929C8.10537 3.48044 8 3.73479 8 4.00001V11H8.5C8.69698 11 8.89205 11.0388 9.07404 11.1142C9.25602 11.1896 9.42138 11.3001 9.56067 11.4394C9.69996 11.5786 9.81045 11.744 9.88583 11.926C9.96122 12.108 10 12.303 10 12.5C10 12.697 9.96122 12.892 9.88583 13.074C9.81045 13.256 9.69996 13.4214 9.56067 13.5607C9.42138 13.7 9.25602 13.8104 9.07404 13.8858C8.89205 13.9612 8.69698 14 8.5 14H8V23H8.5C8.89782 23 9.27936 23.158 9.56067 23.4394C9.84197 23.7207 10 24.1022 10 24.5C10 24.8978 9.84197 25.2794 9.56067 25.5607C9.27936 25.842 8.89782 26 8.5 26H8V35H8.5C8.89782 35 9.27936 35.158 9.56067 35.4394C9.84197 35.7207 10 36.1022 10 36.5C10 36.8978 9.84197 37.2794 9.56067 37.5607C9.27936 37.842 8.89782 38 8.5 38H8V45C8 45.2652 8.10537 45.5196 8.29291 45.7071C8.48044 45.8947 8.73478 46 9 46H13V3.00001ZM44 4.00001C44 3.73479 43.8946 3.48044 43.7071 3.2929C43.5196 3.10537 43.2652 3.00001 43 3.00001H16V46H43C43.2652 46 43.5196 45.8947 43.7071 45.7071C43.8946 45.5196 44 45.2652 44 45V4.00001ZM37.5 21H22.5C22.1022 21 21.7206 20.842 21.4393 20.5607C21.158 20.2794 21 19.8978 21 19.5C21 19.1022 21.158 18.7207 21.4393 18.4394C21.7206 18.158 22.1022 18 22.5 18H37.5C37.8978 18 38.2794 18.158 38.5607 18.4394C38.842 18.7207 39 19.1022 39 19.5C39 19.8978 38.842 20.2794 38.5607 20.5607C38.2794 20.842 37.8978 21 37.5 21ZM37.5 14H22.5C22.303 14 22.108 13.9612 21.926 13.8858C21.744 13.8104 21.5786 13.7 21.4393 13.5607C21.3 13.4214 21.1895 13.256 21.1142 13.074C21.0388 12.892 21 12.697 21 12.5C21 12.303 21.0388 12.108 21.1142 11.926C21.1895 11.744 21.3 11.5786 21.4393 11.4394C21.5786 11.3001 21.744 11.1896 21.926 11.1142C22.108 11.0388 22.303 11 22.5 11H37.5C37.697 11 37.892 11.0388 38.074 11.1142C38.256 11.1896 38.4214 11.3001 38.5607 11.4394C38.7 11.5786 38.8105 11.744 38.8858 11.926C38.9612 12.108 39 12.303 39 12.5C39 12.697 38.9612 12.892 38.8858 13.074C38.8105 13.256 38.7 13.4214 38.5607 13.5607C38.4214 13.7 38.256 13.8104 38.074 13.8858C37.892 13.9612 37.697 14 37.5 14ZM22.5 25H29.5C29.8978 25 30.2794 25.158 30.5607 25.4394C30.842 25.7207 31 26.1022 31 26.5C31 26.8978 30.842 27.2794 30.5607 27.5607C30.2794 27.842 29.8978 28 29.5 28H22.5C22.1022 28 21.7206 27.842 21.4393 27.5607C21.158 27.2794 21 26.8978 21 26.5C21 26.1022 21.158 25.7207 21.4393 25.4394C21.7206 25.158 22.1022 25 22.5 25ZM-51.981 14.716L-52 15.222L-55.367 28.333C-55.5729 28.8053 -55.887 29.2226 -56.284 29.551C-56.7001 29.8141 -57.1757 29.9685 -57.667 30H-83.848C-84.1415 29.9811 -84.4283 29.9038 -84.6915 29.7726C-84.9548 29.6414 -85.1892 29.459 -85.381 29.236C-85.6809 28.8879 -85.9248 28.4952 -86.104 28.072L-91 7.01001H-94.334V7.00001H-97.5C-97.697 7.00001 -97.892 6.96121 -98.074 6.88583C-98.256 6.81045 -98.4214 6.69996 -98.5607 6.56067C-98.6999 6.42138 -98.8104 6.25602 -98.8858 6.07404C-98.9612 5.89205 -99 5.69699 -99 5.50001C-99 5.30303 -98.9612 5.10797 -98.8858 4.92599C-98.8104 4.744 -98.6999 4.57864 -98.5607 4.43935C-98.4214 4.30006 -98.256 4.18957 -98.074 4.11419C-97.892 4.03881 -97.697 4.00001 -97.5 4.00001H-89.5C-89.1629 4.00284 -88.837 4.1208 -88.5761 4.33433C-88.3153 4.54787 -88.1353 4.84414 -88.066 5.17401L-88.034 5.18701L-86.371 12.976L-53.645 12.989L-53.635 13H-53.625C-53.1858 13 -52.7646 13.1745 -52.454 13.485C-52.1435 13.7956 -51.969 14.2168 -51.969 14.656C-51.969 14.677 -51.98 14.7 -51.981 14.716ZM-83 27H-58L-55.188 16H-85.625L-83 27ZM-79.5 33C-78.2144 33 -76.9577 33.3812 -75.8888 34.0955C-74.8199 34.8097 -73.9868 35.8248 -73.4948 37.0126C-73.0028 38.2003 -72.8741 39.5072 -73.1249 40.7681C-73.3757 42.029 -73.9948 43.1872 -74.9038 44.0962C-75.8128 45.0052 -76.971 45.6243 -78.2319 45.8751C-79.4928 46.1259 -80.7997 45.9972 -81.9875 45.5052C-83.1752 45.0133 -84.1903 44.1801 -84.9045 43.1112C-85.6188 42.0423 -86 40.7856 -86 39.5C-86 37.7761 -85.3152 36.1228 -84.0962 34.9038C-82.8772 33.6848 -81.2239 33 -79.5 33ZM-79.5 43C-78.8078 43 -78.1311 42.7947 -77.5555 42.4102C-76.9799 42.0256 -76.5313 41.4789 -76.2664 40.8394C-76.0015 40.1999 -75.9322 39.4961 -76.0673 38.8172C-76.2023 38.1383 -76.5356 37.5146 -77.0251 37.0251C-77.5146 36.5357 -78.1382 36.2023 -78.8172 36.0673C-79.4961 35.9322 -80.1998 36.0015 -80.8394 36.2664C-81.4789 36.5313 -82.0256 36.9799 -82.4102 37.5555C-82.7947 38.1311 -83 38.8078 -83 39.5C-83 40.4283 -82.6313 41.3185 -81.9749 41.9749C-81.3185 42.6313 -80.4283 43 -79.5 43ZM-62.5 33C-61.2144 33 -59.9577 33.3812 -58.8888 34.0955C-57.8199 34.8097 -56.9868 35.8248 -56.4948 37.0126C-56.0028 38.2003 -55.8741 39.5072 -56.1249 40.7681C-56.3757 42.029 -56.9948 43.1872 -57.9038 44.0962C-58.8128 45.0052 -59.971 45.6243 -61.2319 45.8751C-62.4928 46.1259 -63.7997 45.9972 -64.9875 45.5052C-66.1752 45.0133 -67.1903 44.1801 -67.9045 43.1112C-68.6188 42.0423 -69 40.7856 -69 39.5C-69 37.7761 -68.3152 36.1228 -67.0962 34.9038C-65.8772 33.6848 -64.2239 33 -62.5 33ZM-62.5 43C-61.8078 43 -61.1311 42.7947 -60.5555 42.4102C-59.9799 42.0256 -59.5313 41.4789 -59.2664 40.8394C-59.0015 40.1999 -58.9322 39.4961 -59.0673 38.8172C-59.2023 38.1383 -59.5356 37.5146 -60.0251 37.0251C-60.5146 36.5357 -61.1382 36.2023 -61.8172 36.0673C-62.4961 35.9322 -63.1998 36.0015 -63.8394 36.2664C-64.4789 36.5313 -65.0256 36.9799 -65.4102 37.5555C-65.7947 38.1311 -66 38.8078 -66 39.5C-66 40.4283 -65.6313 41.3185 -64.9749 41.9749C-64.3185 42.6313 -63.4283 43 -62.5 43Z" fill="#FBFBFB"/>
</g>
<defs>
<clipPath id="clip0_1_2">
<rect width="400" height="50" fill="white" transform="translate(-350)"/>
</clipPath>
</defs>
</svg>
