<svg width="46" height="50" viewBox="0 0 46 50" fill="none" xmlns="http://www.w3.org/2000/svg">
<g clip-path="url(#clip0_1_2)">
<path fill-rule="evenodd" clip-rule="evenodd" d="M-352 1.12576e-05H48V50H-352V1.12576e-05ZM-306.7 46.97C-306.783 46.9857 -306.867 46.994 -306.952 46.995C-306.967 46.995 -306.981 46.995 -306.996 46.995V46.993C-307.323 47.0053 -307.645 46.9078 -307.911 46.716L-312.017 43.433L-316.123 46.716H-316.13C-316.264 46.8107 -316.413 46.882 -316.571 46.927C-316.615 46.941 -316.657 46.962 -316.702 46.972C-316.906 46.9932 -317.113 46.9932 -317.317 46.972C-317.362 46.962 -317.403 46.941 -317.448 46.927C-317.606 46.882 -317.755 46.8107 -317.889 46.716H-317.896L-322.002 43.433L-326.108 46.716H-326.115C-326.249 46.8107 -326.398 46.882 -326.556 46.927C-326.601 46.941 -326.642 46.962 -326.687 46.972C-326.891 46.9932 -327.098 46.9932 -327.302 46.972C-327.347 46.962 -327.388 46.941 -327.433 46.927C-327.591 46.882 -327.74 46.8107 -327.874 46.716H-327.881L-331.987 43.433L-336.1 46.716H-336.107C-336.241 46.8107 -336.39 46.882 -336.548 46.927C-336.593 46.941 -336.634 46.962 -336.679 46.972C-336.78 46.9881 -336.883 46.9934 -336.986 46.988C-337.089 46.9935 -337.192 46.9881 -337.294 46.972C-337.339 46.962 -337.38 46.941 -337.425 46.927C-337.583 46.882 -337.732 46.8107 -337.866 46.716H-337.873L-341.979 43.433L-346.085 46.716C-346.351 46.9077 -346.673 47.0052 -347 46.993V47C-347.015 47 -347.029 47 -347.044 47C-347.13 46.9976 -347.216 46.9876 -347.3 46.97C-348.038 46.8981 -348.723 46.5543 -349.222 46.0054C-349.721 45.4565 -349.999 44.7418 -350 44V5.00001C-350 4.20436 -349.684 3.4413 -349.121 2.87869C-348.559 2.31608 -347.796 2.00001 -347 2.00001H-307C-306.204 2.00001 -305.441 2.31608 -304.879 2.87869C-304.316 3.4413 -304 4.20436 -304 5.00001V44C-304.001 44.7418 -304.279 45.4565 -304.778 46.0054C-305.277 46.5543 -305.962 46.8981 -306.7 46.97ZM-307 42V6.00001C-307 5.73479 -307.105 5.48044 -307.293 5.2929C-307.48 5.10537 -307.735 5.00001 -308 5.00001H-346C-346.265 5.00001 -346.52 5.10537 -346.707 5.2929C-346.895 5.48044 -347 5.73479 -347 6.00001V43.6L-342.872 40.3C-342.861 40.292 -342.849 40.291 -342.838 40.284C-342.72 40.2043 -342.592 40.1423 -342.456 40.1C-342.398 40.0756 -342.339 40.0549 -342.278 40.038C-342.179 40.0228 -342.078 40.0178 -341.978 40.023C-341.878 40.0178 -341.777 40.0228 -341.678 40.038C-341.617 40.0549 -341.558 40.0756 -341.5 40.1C-341.364 40.142 -341.236 40.2037 -341.118 40.283C-341.107 40.291 -341.094 40.291 -341.084 40.299L-336.984 43.577L-332.884 40.299C-332.873 40.291 -332.861 40.29 -332.85 40.283C-332.733 40.2039 -332.605 40.1422 -332.47 40.1C-332.412 40.0756 -332.353 40.0549 -332.292 40.038C-332.093 40.0174 -331.891 40.0174 -331.692 40.038C-331.631 40.0549 -331.572 40.0756 -331.514 40.1C-331.378 40.142 -331.25 40.2037 -331.132 40.283C-331.121 40.291 -331.108 40.291 -331.098 40.299L-327 43.573L-322.9 40.3C-322.889 40.292 -322.877 40.291 -322.866 40.284C-322.748 40.2047 -322.62 40.143 -322.484 40.101C-322.426 40.0766 -322.367 40.0559 -322.306 40.039C-322.107 40.0184 -321.905 40.0184 -321.706 40.039C-321.645 40.0559 -321.586 40.0766 -321.528 40.101C-321.392 40.143 -321.264 40.2047 -321.146 40.284C-321.135 40.292 -321.122 40.292 -321.112 40.3L-317.012 43.578L-312.912 40.3C-312.901 40.292 -312.889 40.291 -312.878 40.284C-312.762 40.2047 -312.634 40.1427 -312.5 40.1C-312.442 40.0756 -312.383 40.0549 -312.322 40.038C-312.123 40.0174 -311.921 40.0174 -311.722 40.038C-311.661 40.0549 -311.602 40.0756 -311.544 40.1C-311.408 40.142 -311.28 40.2037 -311.162 40.283C-311.151 40.291 -311.138 40.291 -311.128 40.299L-307 43.6V42ZM-317 31H-330C-330.265 31 -330.52 30.8947 -330.707 30.7071C-330.895 30.5196 -331 30.2652 -331 30V29C-331 28.7348 -330.895 28.4804 -330.707 28.2929C-330.52 28.1054 -330.265 28 -330 28H-317C-316.735 28 -316.48 28.1054 -316.293 28.2929C-316.105 28.4804 -316 28.7348 -316 29V30C-316 30.2652 -316.105 30.5196 -316.293 30.7071C-316.48 30.8947 -316.735 31 -317 31ZM-317 24H-330C-330.265 24 -330.52 23.8947 -330.707 23.7071C-330.895 23.5196 -331 23.2652 -331 23V22C-331 21.7348 -330.895 21.4804 -330.707 21.2929C-330.52 21.1054 -330.265 21 -330 21H-317C-316.735 21 -316.48 21.1054 -316.293 21.2929C-316.105 21.4804 -316 21.7348 -316 22V23C-316 23.2652 -316.105 23.5196 -316.293 23.7071C-316.48 23.8947 -316.735 24 -317 24ZM-317 17H-330C-330.265 17 -330.52 16.8947 -330.707 16.7071C-330.895 16.5196 -331 16.2652 -331 16V15C-331 14.7348 -330.895 14.4804 -330.707 14.2929C-330.52 14.1054 -330.265 14 -330 14H-317C-316.735 14 -316.48 14.1054 -316.293 14.2929C-316.105 14.4804 -316 14.7348 -316 15V16C-316 16.2652 -316.105 16.5196 -316.293 16.7071C-316.48 16.8947 -316.735 17 -317 17ZM-335 31H-337C-337.265 31 -337.52 30.8947 -337.707 30.7071C-337.895 30.5196 -338 30.2652 -338 30V29C-338 28.7348 -337.895 28.4804 -337.707 28.2929C-337.52 28.1054 -337.265 28 -337 28H-335C-334.735 28 -334.48 28.1054 -334.293 28.2929C-334.105 28.4804 -334 28.7348 -334 29V30C-334 30.2652 -334.105 30.5196 -334.293 30.7071C-334.48 30.8947 -334.735 31 -335 31ZM-335 24H-337C-337.265 24 -337.52 23.8947 -337.707 23.7071C-337.895 23.5196 -338 23.2652 -338 23V22C-338 21.7348 -337.895 21.4804 -337.707 21.2929C-337.52 21.1054 -337.265 21 -337 21H-335C-334.735 21 -334.48 21.1054 -334.293 21.2929C-334.105 21.4804 -334 21.7348 -334 22V23C-334 23.2652 -334.105 23.5196 -334.293 23.7071C-334.48 23.8947 -334.735 24 -335 24ZM-335 17H-337C-337.265 17 -337.52 16.8947 -337.707 16.7071C-337.895 16.5196 -338 16.2652 -338 16V15C-338 14.7348 -337.895 14.4804 -337.707 14.2929C-337.52 14.1054 -337.265 14 -337 14H-335C-334.735 14 -334.48 14.1054 -334.293 14.2929C-334.105 14.4804 -334 14.7348 -334 15V16C-334 16.2652 -334.105 16.5196 -334.293 16.7071C-334.48 16.8947 -334.735 17 -335 17ZM-257 45H-297C-298.326 45 -299.598 44.4732 -300.536 43.5355C-301.473 42.5979 -302 41.3261 -302 40V10C-302 8.67393 -301.473 7.40216 -300.536 6.46448C-299.598 5.5268 -298.326 5.00001 -297 5.00001H-257C-255.674 5.00001 -254.402 5.5268 -253.464 6.46448C-252.527 7.40216 -252 8.67393 -252 10V40C-252 41.3261 -252.527 42.5979 -253.464 43.5355C-254.402 44.4732 -255.674 45 -257 45ZM-297 42H-257C-256.47 42 -255.961 41.7893 -255.586 41.4142C-255.211 41.0392 -255 40.5304 -255 40V23H-299V40C-299 40.5304 -298.789 41.0392 -298.414 41.4142C-298.039 41.7893 -297.53 42 -297 42ZM-255 10C-255 9.46958 -255.211 8.96087 -255.586 8.5858C-255.961 8.21073 -256.47 8.00001 -257 8.00001H-297C-297.53 8.00001 -298.039 8.21073 -298.414 8.5858C-298.789 8.96087 -299 9.46958 -299 10V13H-255V10ZM-299 16V20H-255V16H-299ZM-292.5 34H-288.5C-288.102 34 -287.721 34.158 -287.439 34.4394C-287.158 34.7207 -287 35.1022 -287 35.5C-287 35.8978 -287.158 36.2794 -287.439 36.5607C-287.721 36.842 -288.102 37 -288.5 37H-292.5C-292.898 37 -293.279 36.842 -293.561 36.5607C-293.842 36.2794 -294 35.8978 -294 35.5C-294 35.1022 -293.842 34.7207 -293.561 34.4394C-293.279 34.158 -292.898 34 -292.5 34ZM-282.5 34H-278.5C-278.102 34 -277.721 34.158 -277.439 34.4394C-277.158 34.7207 -277 35.1022 -277 35.5C-277 35.8978 -277.158 36.2794 -277.439 36.5607C-277.721 36.842 -278.102 37 -278.5 37H-282.5C-282.898 37 -283.279 36.842 -283.561 36.5607C-283.842 36.2794 -284 35.8978 -284 35.5C-284 35.1022 -283.842 34.7207 -283.561 34.4394C-283.279 34.158 -282.898 34 -282.5 34ZM-227 50C-231.945 50 -236.778 48.5338 -240.889 45.7868C-245 43.0397 -248.205 39.1352 -250.097 34.5671C-251.989 29.9989 -252.484 24.9723 -251.52 20.1228C-250.555 15.2732 -248.174 10.8187 -244.678 7.32234C-241.181 3.82603 -236.727 1.44501 -231.877 0.480379C-227.028 -0.484251 -222.001 0.0108321 -217.433 1.90302C-212.865 3.79521 -208.96 6.99953 -206.213 11.1108C-203.466 15.222 -202 20.0555 -202 25C-202 31.6304 -204.634 37.9893 -209.322 42.6777C-214.011 47.3661 -220.37 50 -227 50ZM-216.155 44.127C-218.206 43.4799 -220.1 42.4152 -221.719 41C-222.924 39.87 -223.4 37.78 -223.587 36.39C-225.698 37.1694 -228.012 37.2046 -230.146 36.49C-230.28 38.1496 -230.928 39.7262 -232 41C-233.67 42.4544 -235.627 43.5407 -237.745 44.188C-234.447 46.0421 -230.725 47.0109 -226.942 47.0002C-223.159 46.9895 -219.442 45.9997 -216.155 44.127ZM-227 33.875C-226.081 33.875 -225.17 33.6939 -224.321 33.3422C-223.472 32.9904 -222.7 32.4748 -222.05 31.8248C-221.4 31.1747 -220.885 30.4031 -220.533 29.5538C-220.181 28.7045 -220 27.7943 -220 26.875V21.125C-220 19.2685 -220.737 17.488 -222.05 16.1753C-223.363 14.8625 -225.143 14.125 -227 14.125C-228.857 14.125 -230.637 14.8625 -231.95 16.1753C-233.262 17.488 -234 19.2685 -234 21.125V26.875C-234 27.7943 -233.819 28.7045 -233.467 29.5538C-233.115 30.4031 -232.6 31.1747 -231.95 31.8248C-230.637 33.1375 -228.857 33.875 -227 33.875ZM-227 3.00001C-231.529 3.00004 -235.949 4.39816 -239.654 7.00343C-243.359 9.6087 -246.17 13.2941 -247.702 17.5565C-249.235 21.8189 -249.414 26.4504 -248.216 30.8186C-247.018 35.1868 -244.501 39.0787 -241.009 41.963C-238.675 41.6885 -236.474 40.73 -234.683 39.208C-233.621 38.065 -233.009 36.5771 -232.957 35.018C-234.211 34.0906 -235.23 32.8822 -235.932 31.4897C-236.634 30.0972 -237 28.5595 -237 27V21C-237 18.3478 -235.946 15.8043 -234.071 13.9289C-232.196 12.0536 -229.652 11 -227 11C-224.348 11 -221.804 12.0536 -219.929 13.9289C-218.054 15.8043 -217 18.3478 -217 21V27C-216.999 28.5039 -217.339 29.9884 -217.993 31.3426C-218.647 32.6968 -219.599 33.8856 -220.777 34.82C-220.759 36.448 -220.138 38.0115 -219.035 39.209C-217.312 40.6857 -215.197 41.629 -212.947 41.924C-209.467 39.0335 -206.962 35.1404 -205.775 30.7751C-204.587 26.4097 -204.774 21.7844 -206.311 17.5292C-207.847 13.274 -210.658 9.59591 -214.36 6.99597C-218.062 4.39603 -222.476 3.00068 -227 3.00001ZM-159 50H-195C-196.061 50 -197.078 49.5786 -197.828 48.8284C-198.579 48.0783 -199 47.0609 -199 46V8.00001C-199 6.93915 -198.579 5.92173 -197.828 5.17158C-197.078 4.42144 -196.061 4.00001 -195 4.00001H-189.767C-189.444 2.85092 -188.755 1.83859 -187.804 1.11668C-186.854 0.39477 -185.694 0.00270972 -184.5 1.12576e-05H-169.5C-168.306 0.00270972 -167.146 0.39477 -166.196 1.11668C-165.245 1.83859 -164.556 2.85092 -164.233 4.00001H-159C-157.939 4.00001 -156.922 4.42144 -156.172 5.17158C-155.421 5.92173 -155 6.93915 -155 8.00001V46C-155 47.0609 -155.421 48.0783 -156.172 48.8284C-156.922 49.5786 -157.939 50 -159 50ZM-169.5 3.00001H-184.5C-185.163 3.00001 -185.799 3.2634 -186.268 3.73224C-186.737 4.20109 -187 4.83697 -187 5.50001C-187 6.16305 -186.737 6.79894 -186.268 7.26778C-185.799 7.73662 -185.163 8.00001 -184.5 8.00001H-169.5C-168.837 8.00001 -168.201 7.73662 -167.732 7.26778C-167.263 6.79894 -167 6.16305 -167 5.50001C-167 4.83697 -167.263 4.20109 -167.732 3.73224C-168.201 3.2634 -168.837 3.00001 -169.5 3.00001ZM-158 8.00001C-158 7.73479 -158.105 7.48044 -158.293 7.2929C-158.48 7.10537 -158.735 7.00001 -159 7.00001H-164.233C-164.556 8.1491 -165.245 9.16144 -166.196 9.88334C-167.146 10.6053 -168.306 10.9973 -169.5 11H-184.5C-185.694 10.9975 -186.854 10.6055 -187.805 9.88355C-188.755 9.16161 -189.444 8.14919 -189.767 7.00001H-195C-195.265 7.00001 -195.52 7.10537 -195.707 7.2929C-195.895 7.48044 -196 7.73479 -196 8.00001V46C-196 46.2652 -195.895 46.5196 -195.707 46.7071C-195.52 46.8947 -195.265 47 -195 47H-159C-158.735 47 -158.48 46.8947 -158.293 46.7071C-158.105 46.5196 -158 46.2652 -158 46V8.00001ZM-168.5 40H-176.5C-176.898 40 -177.279 39.842 -177.561 39.5607C-177.842 39.2794 -178 38.8978 -178 38.5C-178 38.1022 -177.842 37.7207 -177.561 37.4394C-177.279 37.158 -176.898 37 -176.5 37H-168.5C-168.102 37 -167.721 37.158 -167.439 37.4394C-167.158 37.7207 -167 38.1022 -167 38.5C-167 38.8978 -167.158 39.2794 -167.439 39.5607C-167.721 39.842 -168.102 40 -168.5 40ZM-168.5 33H-176.5C-176.898 33 -177.279 32.842 -177.561 32.5607C-177.842 32.2794 -178 31.8978 -178 31.5C-178 31.1022 -177.842 30.7207 -177.561 30.4394C-177.279 30.158 -176.898 30 -176.5 30H-168.5C-168.102 30 -167.721 30.158 -167.439 30.4394C-167.158 30.7207 -167 31.1022 -167 31.5C-167 31.8978 -167.158 32.2794 -167.439 32.5607C-167.721 32.842 -168.102 33 -168.5 33ZM-168.5 26H-176.5C-176.898 26 -177.279 25.842 -177.561 25.5607C-177.842 25.2794 -178 24.8978 -178 24.5C-178 24.1022 -177.842 23.7207 -177.561 23.4394C-177.279 23.158 -176.898 23 -176.5 23H-168.5C-168.102 23 -167.721 23.158 -167.439 23.4394C-167.158 23.7207 -167 24.1022 -167 24.5C-167 24.8978 -167.158 25.2794 -167.439 25.5607C-167.721 25.842 -168.102 26 -168.5 26ZM-168.5 19H-176.5C-176.898 19 -177.279 18.842 -177.561 18.5607C-177.842 18.2794 -178 17.8978 -178 17.5C-178 17.1022 -177.842 16.7207 -177.561 16.4394C-177.279 16.158 -176.898 16 -176.5 16H-168.5C-168.102 16 -167.721 16.158 -167.439 16.4394C-167.158 16.7207 -167 17.1022 -167 17.5C-167 17.8978 -167.158 18.2794 -167.439 18.5607C-167.721 18.842 -168.102 19 -168.5 19ZM-183.5 40H-185.5C-185.898 40 -186.279 39.842 -186.561 39.5607C-186.842 39.2794 -187 38.8978 -187 38.5C-187 38.1022 -186.842 37.7207 -186.561 37.4394C-186.279 37.158 -185.898 37 -185.5 37H-183.5C-183.102 37 -182.721 37.158 -182.439 37.4394C-182.158 37.7207 -182 38.1022 -182 38.5C-182 38.8978 -182.158 39.2794 -182.439 39.5607C-182.721 39.842 -183.102 40 -183.5 40ZM-183.5 33H-185.5C-185.898 33 -186.279 32.842 -186.561 32.5607C-186.842 32.2794 -187 31.8978 -187 31.5C-187 31.1022 -186.842 30.7207 -186.561 30.4394C-186.279 30.158 -185.898 30 -185.5 30H-183.5C-183.102 30 -182.721 30.158 -182.439 30.4394C-182.158 30.7207 -182 31.1022 -182 31.5C-182 31.8978 -182.158 32.2794 -182.439 32.5607C-182.721 32.842 -183.102 33 -183.5 33ZM-183.5 26H-185.5C-185.898 26 -186.279 25.842 -186.561 25.5607C-186.842 25.2794 -187 24.8978 -187 24.5C-187 24.1022 -186.842 23.7207 -186.561 23.4394C-186.279 23.158 -185.898 23 -185.5 23H-183.5C-183.102 23 -182.721 23.158 -182.439 23.4394C-182.158 23.7207 -182 24.1022 -182 24.5C-182 24.8978 -182.158 25.2794 -182.439 25.5607C-182.721 25.842 -183.102 26 -183.5 26ZM-183.5 19H-185.5C-185.898 19 -186.279 18.842 -186.561 18.5607C-186.842 18.2794 -187 17.8978 -187 17.5C-187 17.1022 -186.842 16.7207 -186.561 16.4394C-186.279 16.158 -185.898 16 -185.5 16H-183.5C-183.102 16 -182.721 16.158 -182.439 16.4394C-182.158 16.7207 -182 17.1022 -182 17.5C-182 17.8978 -182.158 18.2794 -182.439 18.5607C-182.721 18.842 -183.102 19 -183.5 19ZM-106.5 27H-130.5C-130.898 27 -131.279 26.842 -131.561 26.5607C-131.842 26.2794 -132 25.8978 -132 25.5C-132 25.1022 -131.842 24.7207 -131.561 24.4394C-131.279 24.158 -130.898 24 -130.5 24H-106.5C-106.102 24 -105.721 24.158 -105.439 24.4394C-105.158 24.7207 -105 25.1022 -105 25.5C-105 25.8978 -105.158 26.2794 -105.439 26.5607C-105.721 26.842 -106.102 27 -106.5 27ZM-106.5 11H-130.5C-130.898 11 -131.279 10.842 -131.561 10.5607C-131.842 10.2794 -132 9.89784 -132 9.50001C-132 9.10219 -131.842 8.72066 -131.561 8.43935C-131.279 8.15805 -130.898 8.00001 -130.5 8.00001H-106.5C-106.102 8.00001 -105.721 8.15805 -105.439 8.43935C-105.158 8.72066 -105 9.10219 -105 9.50001C-105 9.89784 -105.158 10.2794 -105.439 10.5607C-105.721 10.842 -106.102 11 -106.5 11ZM-143.5 48C-144.786 48 -146.042 47.6188 -147.111 46.9046C-148.18 46.1903 -149.013 45.1752 -149.505 43.9875C-149.997 42.7997 -150.126 41.4928 -149.875 40.2319C-149.624 38.971 -149.005 37.8129 -148.096 36.9038C-147.187 35.9948 -146.029 35.3757 -144.768 35.1249C-143.507 34.8741 -142.2 35.0028 -141.013 35.4948C-139.825 35.9868 -138.81 36.8199 -138.095 37.8888C-137.381 38.9577 -137 40.2144 -137 41.5C-137 43.2239 -137.685 44.8772 -138.904 46.0962C-140.123 47.3152 -141.776 48 -143.5 48ZM-143.51 37.987C-144.202 37.987 -144.879 38.1923 -145.454 38.5769C-146.03 38.9615 -146.479 39.5081 -146.744 40.1476C-147.008 40.7872 -147.078 41.4909 -146.943 42.1698C-146.808 42.8488 -146.474 43.4724 -145.985 43.9619C-145.495 44.4514 -144.872 44.7847 -144.193 44.9198C-143.514 45.0548 -142.81 44.9855 -142.171 44.7206C-141.531 44.4557 -140.984 44.0071 -140.6 43.4315C-140.215 42.8559 -140.01 42.1792 -140.01 41.487C-140.01 40.5588 -140.379 39.6685 -141.035 39.0121C-141.692 38.3558 -142.582 37.987 -143.51 37.987ZM-143.5 32C-144.786 32 -146.042 31.6188 -147.111 30.9046C-148.18 30.1903 -149.013 29.1752 -149.505 27.9875C-149.997 26.7997 -150.126 25.4928 -149.875 24.2319C-149.624 22.971 -149.005 21.8129 -148.096 20.9038C-147.187 19.9948 -146.029 19.3757 -144.768 19.1249C-143.507 18.8741 -142.2 19.0028 -141.013 19.4948C-139.825 19.9868 -138.81 20.8199 -138.095 21.8888C-137.381 22.9577 -137 24.2144 -137 25.5C-137 27.2239 -137.685 28.8772 -138.904 30.0962C-140.123 31.3152 -141.776 32 -143.5 32ZM-143.51 21.987C-144.202 21.987 -144.879 22.1923 -145.454 22.5769C-146.03 22.9615 -146.479 23.5081 -146.744 24.1476C-147.008 24.7872 -147.078 25.4909 -146.943 26.1698C-146.808 26.8488 -146.474 27.4724 -145.985 27.9619C-145.495 28.4514 -144.872 28.7847 -144.193 28.9198C-143.514 29.0548 -142.81 28.9855 -142.171 28.7206C-141.531 28.4557 -140.984 28.0071 -140.6 27.4315C-140.215 26.8559 -140.01 26.1792 -140.01 25.487C-140.01 24.5588 -140.379 23.6685 -141.035 23.0121C-141.692 22.3558 -142.582 21.987 -143.51 21.987ZM-143.5 16C-144.786 16 -146.042 15.6188 -147.111 14.9046C-148.18 14.1903 -149.013 13.1752 -149.505 11.9875C-149.997 10.7997 -150.126 9.4928 -149.875 8.23192C-149.624 6.97105 -149.005 5.81286 -148.096 4.90382C-147.187 3.99478 -146.029 3.37571 -144.768 3.12491C-143.507 2.8741 -142.2 3.00282 -141.013 3.49479C-139.825 3.98676 -138.81 4.81989 -138.095 5.8888C-137.381 6.95772 -137 8.21443 -137 9.50001C-137 11.2239 -137.685 12.8772 -138.904 14.0962C-140.123 15.3152 -141.776 16 -143.5 16ZM-143.51 5.98701C-144.202 5.98701 -144.879 6.19228 -145.454 6.57687C-146.03 6.96145 -146.479 7.50808 -146.744 8.14762C-147.008 8.78716 -147.078 9.49089 -146.943 10.1698C-146.808 10.8488 -146.474 11.4724 -145.985 11.9619C-145.495 12.4514 -144.872 12.7847 -144.193 12.9198C-143.514 13.0548 -142.81 12.9855 -142.171 12.7206C-141.531 12.4557 -140.984 12.0071 -140.6 11.4315C-140.215 10.8559 -140.01 10.1792 -140.01 9.48701C-140.01 8.55875 -140.379 7.66852 -141.035 7.01214C-141.692 6.35576 -142.582 5.98701 -143.51 5.98701ZM-130.5 40H-106.5C-106.102 40 -105.721 40.158 -105.439 40.4394C-105.158 40.7207 -105 41.1022 -105 41.5C-105 41.8978 -105.158 42.2794 -105.439 42.5607C-105.721 42.842 -106.102 43 -106.5 43H-130.5C-130.898 43 -131.279 42.842 -131.561 42.5607C-131.842 42.2794 -132 41.8978 -132 41.5C-132 41.1022 -131.842 40.7207 -131.561 40.4394C-131.279 40.158 -130.898 40 -130.5 40ZM-6 48H-48C-49.0609 48 -50.0783 47.5786 -50.8284 46.8284C-51.5786 46.0783 -52 45.0609 -52 44V19.75C-52 19.707 -52 19.667 -52 19.624V18C-52 16.9391 -51.5786 15.9217 -50.8284 15.1716C-50.0783 14.4214 -49.0609 14 -48 14H-43V5.00001C-43 4.20436 -42.6839 3.4413 -42.1213 2.87869C-41.5587 2.31608 -40.7956 2.00001 -40 2.00001H-14C-13.2044 2.00001 -12.4413 2.31608 -11.8787 2.87869C-11.3161 3.4413 -11 4.20436 -11 5.00001V14H-6C-4.93913 14 -3.92172 14.4214 -3.17157 15.1716C-2.42142 15.9217 -2 16.9391 -2 18V44C-2 45.0609 -2.42142 46.0783 -3.17157 46.8284C-3.92172 47.5786 -4.93913 48 -6 48ZM-48 17C-48.2652 17 -48.5196 17.1054 -48.7071 17.2929C-48.8946 17.4804 -49 17.7348 -49 18V18.627L-43 22.922V17H-48ZM-14 5.00001H-40V25.069L-27.052 34.337L-14 24.994V5.00001ZM-5 18C-5 17.7348 -5.10537 17.4804 -5.29291 17.2929C-5.48044 17.1054 -5.73478 17 -6 17H-11V22.847L-5 18.552V18ZM-5 22.6L-25.87 37.537C-26.1842 37.8495 -26.6093 38.0249 -27.0525 38.0249C-27.4956 38.0249 -27.9208 37.8495 -28.235 37.537L-49 22.673V44C-49 44.2652 -48.8946 44.5196 -48.7071 44.7071C-48.5196 44.8947 -48.2652 45 -48 45H-6C-5.73478 45 -5.48044 44.8947 -5.29291 44.7071C-5.10537 44.5196 -5 44.2652 -5 44V22.6ZM-28.233 22.986C-28.4584 22.9873 -28.6818 22.9438 -28.8902 22.8579C-29.0986 22.7721 -29.2879 22.6457 -29.447 22.486L-34.522 16.921C-34.6814 16.762 -34.808 16.5732 -34.8944 16.3654C-34.9809 16.1575 -35.0256 15.9346 -35.0259 15.7095C-35.0262 15.4844 -34.9822 15.2614 -34.8963 15.0532C-34.8105 14.8451 -34.6845 14.6559 -34.5255 14.4965C-34.3665 14.3371 -34.1777 14.2105 -33.9698 14.1241C-33.762 14.0376 -33.5391 13.993 -33.314 13.9926C-33.0888 13.9923 -32.8658 14.0363 -32.6577 14.1222C-32.4496 14.208 -32.2604 14.334 -32.101 14.493L-28.183 18.793L-20.942 11.484C-20.7826 11.325 -20.5934 11.199 -20.3853 11.1132C-20.1772 11.0273 -19.9542 10.9833 -19.729 10.9836C-19.5039 10.984 -19.281 11.0286 -19.0732 11.1151C-18.8653 11.2015 -18.6765 11.3281 -18.5175 11.4875C-18.3585 11.6469 -18.2325 11.8361 -18.1467 12.0442C-18.0608 12.2524 -18.0168 12.4754 -18.0171 12.7005C-18.0174 12.9256 -18.0621 13.1485 -18.1486 13.3564C-18.235 13.5642 -18.3616 13.753 -18.521 13.912L-27.021 22.49C-27.1804 22.6483 -27.3695 22.7735 -27.5775 22.8583C-27.7856 22.9431 -28.0084 22.9858 -28.233 22.984V22.986ZM41 49H7C5.93913 49 4.92172 48.5786 4.17157 47.8284C3.42142 47.0783 3 46.0609 3 45V38H1.5C1.10218 38 0.720636 37.842 0.439331 37.5607C0.158026 37.2794 0 36.8978 0 36.5C0 36.1022 0.158026 35.7207 0.439331 35.4394C0.720636 35.158 1.10218 35 1.5 35H3V26H1.5C1.10218 26 0.720636 25.842 0.439331 25.5607C0.158026 25.2794 0 24.8978 0 24.5C0 24.1022 0.158026 23.7207 0.439331 23.4394C0.720636 23.158 1.10218 23 1.5 23H3V14H1.5C1.30302 14 1.10795 13.9612 0.925964 13.8858C0.743976 13.8104 0.578619 13.7 0.439331 13.5607C0.300043 13.4214 0.189548 13.256 0.114166 13.074C0.0387842 12.892 0 12.697 0 12.5C0 12.303 0.0387842 12.108 0.114166 11.926C0.189548 11.744 0.300043 11.5786 0.439331 11.4394C0.578619 11.3001 0.743976 11.1896 0.925964 11.1142C1.10795 11.0388 1.30302 11 1.5 11H3V4.00001C3 2.93915 3.42142 1.92173 4.17157 1.17158C4.92172 0.421439 5.93913 1.12576e-05 7 1.12576e-05H41C42.0609 1.12576e-05 43.0783 0.421439 43.8284 1.17158C44.5786 1.92173 45 2.93915 45 4.00001V45C45 46.0609 44.5786 47.0783 43.8284 47.8284C43.0783 48.5786 42.0609 49 41 49ZM11 3.00001H7C6.73478 3.00001 6.48044 3.10537 6.29291 3.2929C6.10537 3.48044 6 3.73479 6 4.00001V11H6.5C6.69698 11 6.89205 11.0388 7.07404 11.1142C7.25602 11.1896 7.42138 11.3001 7.56067 11.4394C7.69996 11.5786 7.81045 11.744 7.88583 11.926C7.96122 12.108 8 12.303 8 12.5C8 12.697 7.96122 12.892 7.88583 13.074C7.81045 13.256 7.69996 13.4214 7.56067 13.5607C7.42138 13.7 7.25602 13.8104 7.07404 13.8858C6.89205 13.9612 6.69698 14 6.5 14H6V23H6.5C6.89782 23 7.27936 23.158 7.56067 23.4394C7.84197 23.7207 8 24.1022 8 24.5C8 24.8978 7.84197 25.2794 7.56067 25.5607C7.27936 25.842 6.89782 26 6.5 26H6V35H6.5C6.89782 35 7.27936 35.158 7.56067 35.4394C7.84197 35.7207 8 36.1022 8 36.5C8 36.8978 7.84197 37.2794 7.56067 37.5607C7.27936 37.842 6.89782 38 6.5 38H6V45C6 45.2652 6.10537 45.5196 6.29291 45.7071C6.48044 45.8947 6.73478 46 7 46H11V3.00001ZM42 4.00001C42 3.73479 41.8946 3.48044 41.7071 3.2929C41.5196 3.10537 41.2652 3.00001 41 3.00001H14V46H41C41.2652 46 41.5196 45.8947 41.7071 45.7071C41.8946 45.5196 42 45.2652 42 45V4.00001ZM35.5 21H20.5C20.1022 21 19.7206 20.842 19.4393 20.5607C19.158 20.2794 19 19.8978 19 19.5C19 19.1022 19.158 18.7207 19.4393 18.4394C19.7206 18.158 20.1022 18 20.5 18H35.5C35.8978 18 36.2794 18.158 36.5607 18.4394C36.842 18.7207 37 19.1022 37 19.5C37 19.8978 36.842 20.2794 36.5607 20.5607C36.2794 20.842 35.8978 21 35.5 21ZM35.5 14H20.5C20.303 14 20.108 13.9612 19.926 13.8858C19.744 13.8104 19.5786 13.7 19.4393 13.5607C19.3 13.4214 19.1895 13.256 19.1142 13.074C19.0388 12.892 19 12.697 19 12.5C19 12.303 19.0388 12.108 19.1142 11.926C19.1895 11.744 19.3 11.5786 19.4393 11.4394C19.5786 11.3001 19.744 11.1896 19.926 11.1142C20.108 11.0388 20.303 11 20.5 11H35.5C35.697 11 35.892 11.0388 36.074 11.1142C36.256 11.1896 36.4214 11.3001 36.5607 11.4394C36.7 11.5786 36.8105 11.744 36.8858 11.926C36.9612 12.108 37 12.303 37 12.5C37 12.697 36.9612 12.892 36.8858 13.074C36.8105 13.256 36.7 13.4214 36.5607 13.5607C36.4214 13.7 36.256 13.8104 36.074 13.8858C35.892 13.9612 35.697 14 35.5 14ZM20.5 25H27.5C27.8978 25 28.2794 25.158 28.5607 25.4394C28.842 25.7207 29 26.1022 29 26.5C29 26.8978 28.842 27.2794 28.5607 27.5607C28.2794 27.842 27.8978 28 27.5 28H20.5C20.1022 28 19.7206 27.842 19.4393 27.5607C19.158 27.2794 19 26.8978 19 26.5C19 26.1022 19.158 25.7207 19.4393 25.4394C19.7206 25.158 20.1022 25 20.5 25ZM-53.981 14.716L-54 15.222L-57.367 28.333C-57.5729 28.8053 -57.887 29.2226 -58.284 29.551C-58.7001 29.8141 -59.1757 29.9685 -59.667 30H-85.848C-86.1415 29.9811 -86.4283 29.9038 -86.6915 29.7726C-86.9548 29.6414 -87.1892 29.459 -87.381 29.236C-87.6809 28.8879 -87.9248 28.4952 -88.104 28.072L-93 7.01001H-96.334V7.00001H-99.5C-99.697 7.00001 -99.892 6.96121 -100.074 6.88583C-100.256 6.81045 -100.421 6.69996 -100.561 6.56067C-100.7 6.42138 -100.81 6.25602 -100.886 6.07404C-100.961 5.89205 -101 5.69699 -101 5.50001C-101 5.30303 -100.961 5.10797 -100.886 4.92599C-100.81 4.744 -100.7 4.57864 -100.561 4.43935C-100.421 4.30006 -100.256 4.18957 -100.074 4.11419C-99.892 4.03881 -99.697 4.00001 -99.5 4.00001H-91.5C-91.1629 4.00284 -90.837 4.1208 -90.5761 4.33433C-90.3153 4.54787 -90.1353 4.84414 -90.066 5.17401L-90.034 5.18701L-88.371 12.976L-55.645 12.989L-55.635 13H-55.625C-55.1858 13 -54.7646 13.1745 -54.454 13.485C-54.1435 13.7956 -53.969 14.2168 -53.969 14.656C-53.969 14.677 -53.98 14.7 -53.981 14.716ZM-85 27H-60L-57.188 16H-87.625L-85 27ZM-81.5 33C-80.2144 33 -78.9577 33.3812 -77.8888 34.0955C-76.8199 34.8097 -75.9868 35.8248 -75.4948 37.0126C-75.0028 38.2003 -74.8741 39.5072 -75.1249 40.7681C-75.3757 42.029 -75.9948 43.1872 -76.9038 44.0962C-77.8128 45.0052 -78.971 45.6243 -80.2319 45.8751C-81.4928 46.1259 -82.7997 45.9972 -83.9875 45.5052C-85.1752 45.0133 -86.1903 44.1801 -86.9045 43.1112C-87.6188 42.0423 -88 40.7856 -88 39.5C-88 37.7761 -87.3152 36.1228 -86.0962 34.9038C-84.8772 33.6848 -83.2239 33 -81.5 33ZM-81.5 43C-80.8078 43 -80.1311 42.7947 -79.5555 42.4102C-78.9799 42.0256 -78.5313 41.4789 -78.2664 40.8394C-78.0015 40.1999 -77.9322 39.4961 -78.0673 38.8172C-78.2023 38.1383 -78.5356 37.5146 -79.0251 37.0251C-79.5146 36.5357 -80.1382 36.2023 -80.8172 36.0673C-81.4961 35.9322 -82.1998 36.0015 -82.8394 36.2664C-83.4789 36.5313 -84.0256 36.9799 -84.4102 37.5555C-84.7947 38.1311 -85 38.8078 -85 39.5C-85 40.4283 -84.6313 41.3185 -83.9749 41.9749C-83.3185 42.6313 -82.4283 43 -81.5 43ZM-64.5 33C-63.2144 33 -61.9577 33.3812 -60.8888 34.0955C-59.8199 34.8097 -58.9868 35.8248 -58.4948 37.0126C-58.0028 38.2003 -57.8741 39.5072 -58.1249 40.7681C-58.3757 42.029 -58.9948 43.1872 -59.9038 44.0962C-60.8128 45.0052 -61.971 45.6243 -63.2319 45.8751C-64.4928 46.1259 -65.7997 45.9972 -66.9875 45.5052C-68.1752 45.0133 -69.1903 44.1801 -69.9045 43.1112C-70.6188 42.0423 -71 40.7856 -71 39.5C-71 37.7761 -70.3152 36.1228 -69.0962 34.9038C-67.8772 33.6848 -66.2239 33 -64.5 33ZM-64.5 43C-63.8078 43 -63.1311 42.7947 -62.5555 42.4102C-61.9799 42.0256 -61.5313 41.4789 -61.2664 40.8394C-61.0015 40.1999 -60.9322 39.4961 -61.0673 38.8172C-61.2023 38.1383 -61.5356 37.5146 -62.0251 37.0251C-62.5146 36.5357 -63.1382 36.2023 -63.8172 36.0673C-64.4961 35.9322 -65.1998 36.0015 -65.8394 36.2664C-66.4789 36.5313 -67.0256 36.9799 -67.4102 37.5555C-67.7947 38.1311 -68 38.8078 -68 39.5C-68 40.4283 -67.6313 41.3185 -66.9749 41.9749C-66.3185 42.6313 -65.4283 43 -64.5 43Z" fill="#FBFBFB"/>
</g>
<defs>
<clipPath id="clip0_1_2">
<rect width="400" height="50" fill="white" transform="translate(-352)"/>
</clipPath>
</defs>
</svg>
