<svg width="50" height="50" viewBox="0 0 50 50" fill="none" xmlns="http://www.w3.org/2000/svg">
<g clip-path="url(#clip0_1_2)">
<path fill-rule="evenodd" clip-rule="evenodd" d="M-100 1.12576e-05H300V50H-100V1.12576e-05ZM-54.7 46.97C-54.7831 46.9857 -54.8674 46.994 -54.952 46.995C-54.967 46.995 -54.981 46.995 -54.996 46.995V46.993C-55.3234 47.0053 -55.6454 46.9078 -55.911 46.716L-60.017 43.433L-64.123 46.716H-64.13C-64.2641 46.8107 -64.4132 46.882 -64.571 46.927C-64.615 46.941 -64.657 46.962 -64.702 46.972C-64.9065 46.9932 -65.1125 46.9932 -65.317 46.972C-65.362 46.962 -65.403 46.941 -65.448 46.927C-65.6058 46.882 -65.7549 46.8107 -65.889 46.716H-65.896L-70.002 43.433L-74.108 46.716H-74.115C-74.2491 46.8107 -74.3982 46.882 -74.556 46.927C-74.601 46.941 -74.642 46.962 -74.687 46.972C-74.8915 46.9932 -75.0975 46.9932 -75.302 46.972C-75.347 46.962 -75.388 46.941 -75.433 46.927C-75.5908 46.882 -75.7399 46.8107 -75.874 46.716H-75.881L-79.987 43.433L-84.1 46.716H-84.107C-84.2411 46.8107 -84.3902 46.882 -84.548 46.927C-84.593 46.941 -84.634 46.962 -84.679 46.972C-84.7805 46.9881 -84.8834 46.9934 -84.986 46.988C-85.0889 46.9935 -85.1922 46.9881 -85.294 46.972C-85.339 46.962 -85.38 46.941 -85.425 46.927C-85.5828 46.882 -85.7319 46.8107 -85.866 46.716H-85.873L-89.979 43.433L-94.085 46.716C-94.3506 46.9077 -94.6727 47.0052 -95 46.993V47C-95.015 47 -95.029 47 -95.044 47C-95.1301 46.9976 -95.2157 46.9876 -95.3 46.97C-96.0383 46.8981 -96.7235 46.5543 -97.2224 46.0054C-97.7214 45.4565 -97.9985 44.7418 -98 44V5.00001C-98 4.20436 -97.6839 3.4413 -97.1213 2.87869C-96.5587 2.31608 -95.7956 2.00001 -95 2.00001H-55C-54.2044 2.00001 -53.4413 2.31608 -52.8787 2.87869C-52.3161 3.4413 -52 4.20436 -52 5.00001V44C-52.0015 44.7418 -52.2786 45.4565 -52.7776 46.0054C-53.2765 46.5543 -53.9617 46.8981 -54.7 46.97ZM-55 42V6.00001C-55 5.73479 -55.1054 5.48044 -55.2929 5.2929C-55.4804 5.10537 -55.7348 5.00001 -56 5.00001H-94C-94.2652 5.00001 -94.5196 5.10537 -94.7071 5.2929C-94.8946 5.48044 -95 5.73479 -95 6.00001V43.6L-90.872 40.3C-90.861 40.292 -90.849 40.291 -90.838 40.284C-90.7204 40.2043 -90.5917 40.1423 -90.456 40.1C-90.398 40.0756 -90.3386 40.0549 -90.278 40.038C-90.1788 40.0228 -90.0782 40.0178 -89.978 40.023C-89.8777 40.0178 -89.7772 40.0228 -89.678 40.038C-89.6174 40.0549 -89.558 40.0756 -89.5 40.1C-89.3644 40.142 -89.2357 40.2037 -89.118 40.283C-89.107 40.291 -89.094 40.291 -89.084 40.299L-84.984 43.577L-80.884 40.299C-80.873 40.291 -80.861 40.29 -80.85 40.283C-80.7329 40.2039 -80.6049 40.1422 -80.47 40.1C-80.412 40.0756 -80.3526 40.0549 -80.292 40.038C-80.0925 40.0174 -79.8915 40.0174 -79.692 40.038C-79.6314 40.0549 -79.572 40.0756 -79.514 40.1C-79.3784 40.142 -79.2497 40.2037 -79.132 40.283C-79.121 40.291 -79.108 40.291 -79.098 40.299L-75 43.573L-70.9 40.3C-70.889 40.292 -70.877 40.291 -70.866 40.284C-70.7483 40.2047 -70.6196 40.143 -70.484 40.101C-70.426 40.0766 -70.3666 40.0559 -70.306 40.039C-70.1065 40.0184 -69.9055 40.0184 -69.706 40.039C-69.6454 40.0559 -69.586 40.0766 -69.528 40.101C-69.3924 40.143 -69.2637 40.2047 -69.146 40.284C-69.135 40.292 -69.122 40.292 -69.112 40.3L-65.012 43.578L-60.912 40.3C-60.901 40.292 -60.889 40.291 -60.878 40.284C-60.7616 40.2047 -60.6343 40.1427 -60.5 40.1C-60.442 40.0756 -60.3826 40.0549 -60.322 40.038C-60.1225 40.0174 -59.9215 40.0174 -59.722 40.038C-59.6614 40.0549 -59.602 40.0756 -59.544 40.1C-59.4084 40.142 -59.2797 40.2037 -59.162 40.283C-59.151 40.291 -59.138 40.291 -59.128 40.299L-55 43.6V42ZM-65 31H-78C-78.2652 31 -78.5196 30.8947 -78.7071 30.7071C-78.8946 30.5196 -79 30.2652 -79 30V29C-79 28.7348 -78.8946 28.4804 -78.7071 28.2929C-78.5196 28.1054 -78.2652 28 -78 28H-65C-64.7348 28 -64.4804 28.1054 -64.2929 28.2929C-64.1054 28.4804 -64 28.7348 -64 29V30C-64 30.2652 -64.1054 30.5196 -64.2929 30.7071C-64.4804 30.8947 -64.7348 31 -65 31ZM-65 24H-78C-78.2652 24 -78.5196 23.8947 -78.7071 23.7071C-78.8946 23.5196 -79 23.2652 -79 23V22C-79 21.7348 -78.8946 21.4804 -78.7071 21.2929C-78.5196 21.1054 -78.2652 21 -78 21H-65C-64.7348 21 -64.4804 21.1054 -64.2929 21.2929C-64.1054 21.4804 -64 21.7348 -64 22V23C-64 23.2652 -64.1054 23.5196 -64.2929 23.7071C-64.4804 23.8947 -64.7348 24 -65 24ZM-65 17H-78C-78.2652 17 -78.5196 16.8947 -78.7071 16.7071C-78.8946 16.5196 -79 16.2652 -79 16V15C-79 14.7348 -78.8946 14.4804 -78.7071 14.2929C-78.5196 14.1054 -78.2652 14 -78 14H-65C-64.7348 14 -64.4804 14.1054 -64.2929 14.2929C-64.1054 14.4804 -64 14.7348 -64 15V16C-64 16.2652 -64.1054 16.5196 -64.2929 16.7071C-64.4804 16.8947 -64.7348 17 -65 17ZM-83 31H-85C-85.2652 31 -85.5196 30.8947 -85.7071 30.7071C-85.8946 30.5196 -86 30.2652 -86 30V29C-86 28.7348 -85.8946 28.4804 -85.7071 28.2929C-85.5196 28.1054 -85.2652 28 -85 28H-83C-82.7348 28 -82.4804 28.1054 -82.2929 28.2929C-82.1054 28.4804 -82 28.7348 -82 29V30C-82 30.2652 -82.1054 30.5196 -82.2929 30.7071C-82.4804 30.8947 -82.7348 31 -83 31ZM-83 24H-85C-85.2652 24 -85.5196 23.8947 -85.7071 23.7071C-85.8946 23.5196 -86 23.2652 -86 23V22C-86 21.7348 -85.8946 21.4804 -85.7071 21.2929C-85.5196 21.1054 -85.2652 21 -85 21H-83C-82.7348 21 -82.4804 21.1054 -82.2929 21.2929C-82.1054 21.4804 -82 21.7348 -82 22V23C-82 23.2652 -82.1054 23.5196 -82.2929 23.7071C-82.4804 23.8947 -82.7348 24 -83 24ZM-83 17H-85C-85.2652 17 -85.5196 16.8947 -85.7071 16.7071C-85.8946 16.5196 -86 16.2652 -86 16V15C-86 14.7348 -85.8946 14.4804 -85.7071 14.2929C-85.5196 14.1054 -85.2652 14 -85 14H-83C-82.7348 14 -82.4804 14.1054 -82.2929 14.2929C-82.1054 14.4804 -82 14.7348 -82 15V16C-82 16.2652 -82.1054 16.5196 -82.2929 16.7071C-82.4804 16.8947 -82.7348 17 -83 17ZM-5 45H-45C-46.3261 45 -47.5979 44.4732 -48.5355 43.5355C-49.4732 42.5979 -50 41.3261 -50 40V10C-50 8.67393 -49.4732 7.40216 -48.5355 6.46448C-47.5979 5.5268 -46.3261 5.00001 -45 5.00001H-5C-3.67392 5.00001 -2.40214 5.5268 -1.46446 6.46448C-0.52678 7.40216 0 8.67393 0 10V40C0 41.3261 -0.52678 42.5979 -1.46446 43.5355C-2.40214 44.4732 -3.67392 45 -5 45ZM-45 42H-5C-4.46957 42 -3.96086 41.7893 -3.58578 41.4142C-3.21071 41.0392 -3 40.5304 -3 40V23H-47V40C-47 40.5304 -46.7893 41.0392 -46.4142 41.4142C-46.0391 41.7893 -45.5304 42 -45 42ZM-3 10C-3 9.46958 -3.21071 8.96087 -3.58578 8.5858C-3.96086 8.21073 -4.46957 8.00001 -5 8.00001H-45C-45.5304 8.00001 -46.0391 8.21073 -46.4142 8.5858C-46.7893 8.96087 -47 9.46958 -47 10V13H-3V10ZM-47 16V20H-3V16H-47ZM-40.5 34H-36.5C-36.1022 34 -35.7206 34.158 -35.4393 34.4394C-35.158 34.7207 -35 35.1022 -35 35.5C-35 35.8978 -35.158 36.2794 -35.4393 36.5607C-35.7206 36.842 -36.1022 37 -36.5 37H-40.5C-40.8978 37 -41.2794 36.842 -41.5607 36.5607C-41.842 36.2794 -42 35.8978 -42 35.5C-42 35.1022 -41.842 34.7207 -41.5607 34.4394C-41.2794 34.158 -40.8978 34 -40.5 34ZM-30.5 34H-26.5C-26.1022 34 -25.7206 34.158 -25.4393 34.4394C-25.158 34.7207 -25 35.1022 -25 35.5C-25 35.8978 -25.158 36.2794 -25.4393 36.5607C-25.7206 36.842 -26.1022 37 -26.5 37H-30.5C-30.8978 37 -31.2794 36.842 -31.5607 36.5607C-31.842 36.2794 -32 35.8978 -32 35.5C-32 35.1022 -31.842 34.7207 -31.5607 34.4394C-31.2794 34.158 -30.8978 34 -30.5 34ZM25 50C20.0555 50 15.222 48.5338 11.1107 45.7868C6.99951 43.0397 3.79521 39.1352 1.90302 34.5671C0.0108243 29.9989 -0.484261 24.9723 0.48037 20.1228C1.445 15.2732 3.82601 10.8187 7.32233 7.32234C10.8186 3.82603 15.2732 1.44501 20.1227 0.480379C24.9723 -0.484251 29.9989 0.0108321 34.5671 1.90302C39.1352 3.79521 43.0397 6.99953 45.7867 11.1108C48.5338 15.222 50 20.0555 50 25C50 31.6304 47.3661 37.9893 42.6777 42.6777C37.9893 47.3661 31.6304 50 25 50ZM35.845 44.127C33.7944 43.4799 31.9 42.4152 30.281 41C29.076 39.87 28.6 37.78 28.413 36.39C26.3019 37.1694 23.9879 37.2046 21.854 36.49C21.7204 38.1496 21.0723 39.7262 20 41C18.3302 42.4544 16.3727 43.5407 14.255 44.188C17.5529 46.0421 21.2747 47.0109 25.058 47.0002C28.8414 46.9895 32.5576 45.9997 35.845 44.127ZM25 33.875C25.9193 33.875 26.8295 33.6939 27.6788 33.3422C28.5281 32.9904 29.2997 32.4748 29.9498 31.8248C30.5998 31.1747 31.1154 30.4031 31.4672 29.5538C31.8189 28.7045 32 27.7943 32 26.875V21.125C32 19.2685 31.2625 17.488 29.9498 16.1753C28.637 14.8625 26.8565 14.125 25 14.125C23.1435 14.125 21.363 14.8625 20.0503 16.1753C18.7375 17.488 18 19.2685 18 21.125V26.875C18 27.7943 18.1811 28.7045 18.5328 29.5538C18.8846 30.4031 19.4002 31.1747 20.0503 31.8248C21.363 33.1375 23.1435 33.875 25 33.875ZM25 3.00001C20.4705 3.00004 16.0514 4.39816 12.3462 7.00343C8.64095 9.6087 5.83016 13.2941 4.29765 17.5565C2.76513 21.8189 2.5856 26.4504 3.78355 30.8186C4.98151 35.1868 7.49856 39.0787 10.991 41.963C13.3252 41.6885 15.5261 40.73 17.317 39.208C18.3785 38.065 18.9915 36.5771 19.043 35.018C17.7892 34.0906 16.7704 32.8822 16.0682 31.4897C15.3661 30.0972 15.0002 28.5595 15 27V21C15 18.3478 16.0536 15.8043 17.9289 13.9289C19.8043 12.0536 22.3478 11 25 11C27.6522 11 30.1957 12.0536 32.0711 13.9289C33.9464 15.8043 35 18.3478 35 21V27C35.0006 28.5039 34.6612 29.9884 34.0072 31.3426C33.3531 32.6968 32.4013 33.8856 31.223 34.82C31.2414 36.448 31.862 38.0115 32.965 39.209C34.6878 40.6857 36.8032 41.629 39.053 41.924C42.5332 39.0335 45.0377 35.1404 46.2252 30.7751C47.4128 26.4097 47.2257 21.7844 45.6894 17.5292C44.1531 13.274 41.3424 9.59591 37.6401 6.99597C33.9378 4.39603 29.524 3.00068 25 3.00001ZM93 50H57C55.9391 50 54.9217 49.5786 54.1716 48.8284C53.4214 48.0783 53 47.0609 53 46V8.00001C53 6.93915 53.4214 5.92173 54.1716 5.17158C54.9217 4.42144 55.9391 4.00001 57 4.00001H62.233C62.556 2.85092 63.2451 1.83859 64.1957 1.11668C65.1462 0.39477 66.3064 0.00270972 67.5 1.12576e-05H82.5C83.6936 0.00270972 84.8538 0.39477 85.8043 1.11668C86.7549 1.83859 87.444 2.85092 87.767 4.00001H93C94.0609 4.00001 95.0783 4.42144 95.8284 5.17158C96.5786 5.92173 97 6.93915 97 8.00001V46C97 47.0609 96.5786 48.0783 95.8284 48.8284C95.0783 49.5786 94.0609 50 93 50ZM82.5 3.00001H67.5C66.837 3.00001 66.2011 3.2634 65.7322 3.73224C65.2634 4.20109 65 4.83697 65 5.50001C65 6.16305 65.2634 6.79894 65.7322 7.26778C66.2011 7.73662 66.837 8.00001 67.5 8.00001H82.5C83.163 8.00001 83.7989 7.73662 84.2678 7.26778C84.7366 6.79894 85 6.16305 85 5.50001C85 4.83697 84.7366 4.20109 84.2678 3.73224C83.7989 3.2634 83.163 3.00001 82.5 3.00001ZM94 8.00001C94 7.73479 93.8946 7.48044 93.7071 7.2929C93.5196 7.10537 93.2652 7.00001 93 7.00001H87.767C87.444 8.1491 86.7549 9.16144 85.8043 9.88334C84.8538 10.6053 83.6936 10.9973 82.5 11H67.5C66.3063 10.9975 65.1461 10.6055 64.1955 9.88355C63.2449 9.16161 62.5559 8.14919 62.233 7.00001H57C56.7348 7.00001 56.4804 7.10537 56.2929 7.2929C56.1054 7.48044 56 7.73479 56 8.00001V46C56 46.2652 56.1054 46.5196 56.2929 46.7071C56.4804 46.8947 56.7348 47 57 47H93C93.2652 47 93.5196 46.8947 93.7071 46.7071C93.8946 46.5196 94 46.2652 94 46V8.00001ZM83.5 40H75.5C75.1022 40 74.7207 39.842 74.4393 39.5607C74.158 39.2794 74 38.8978 74 38.5C74 38.1022 74.158 37.7207 74.4393 37.4394C74.7207 37.158 75.1022 37 75.5 37H83.5C83.8978 37 84.2793 37.158 84.5607 37.4394C84.842 37.7207 85 38.1022 85 38.5C85 38.8978 84.842 39.2794 84.5607 39.5607C84.2793 39.842 83.8978 40 83.5 40ZM83.5 33H75.5C75.1022 33 74.7207 32.842 74.4393 32.5607C74.158 32.2794 74 31.8978 74 31.5C74 31.1022 74.158 30.7207 74.4393 30.4394C74.7207 30.158 75.1022 30 75.5 30H83.5C83.8978 30 84.2793 30.158 84.5607 30.4394C84.842 30.7207 85 31.1022 85 31.5C85 31.8978 84.842 32.2794 84.5607 32.5607C84.2793 32.842 83.8978 33 83.5 33ZM83.5 26H75.5C75.1022 26 74.7207 25.842 74.4393 25.5607C74.158 25.2794 74 24.8978 74 24.5C74 24.1022 74.158 23.7207 74.4393 23.4394C74.7207 23.158 75.1022 23 75.5 23H83.5C83.8978 23 84.2793 23.158 84.5607 23.4394C84.842 23.7207 85 24.1022 85 24.5C85 24.8978 84.842 25.2794 84.5607 25.5607C84.2793 25.842 83.8978 26 83.5 26ZM83.5 19H75.5C75.1022 19 74.7207 18.842 74.4393 18.5607C74.158 18.2794 74 17.8978 74 17.5C74 17.1022 74.158 16.7207 74.4393 16.4394C74.7207 16.158 75.1022 16 75.5 16H83.5C83.8978 16 84.2793 16.158 84.5607 16.4394C84.842 16.7207 85 17.1022 85 17.5C85 17.8978 84.842 18.2794 84.5607 18.5607C84.2793 18.842 83.8978 19 83.5 19ZM68.5 40H66.5C66.1022 40 65.7207 39.842 65.4393 39.5607C65.158 39.2794 65 38.8978 65 38.5C65 38.1022 65.158 37.7207 65.4393 37.4394C65.7207 37.158 66.1022 37 66.5 37H68.5C68.8978 37 69.2793 37.158 69.5607 37.4394C69.842 37.7207 70 38.1022 70 38.5C70 38.8978 69.842 39.2794 69.5607 39.5607C69.2793 39.842 68.8978 40 68.5 40ZM68.5 33H66.5C66.1022 33 65.7207 32.842 65.4393 32.5607C65.158 32.2794 65 31.8978 65 31.5C65 31.1022 65.158 30.7207 65.4393 30.4394C65.7207 30.158 66.1022 30 66.5 30H68.5C68.8978 30 69.2793 30.158 69.5607 30.4394C69.842 30.7207 70 31.1022 70 31.5C70 31.8978 69.842 32.2794 69.5607 32.5607C69.2793 32.842 68.8978 33 68.5 33ZM68.5 26H66.5C66.1022 26 65.7207 25.842 65.4393 25.5607C65.158 25.2794 65 24.8978 65 24.5C65 24.1022 65.158 23.7207 65.4393 23.4394C65.7207 23.158 66.1022 23 66.5 23H68.5C68.8978 23 69.2793 23.158 69.5607 23.4394C69.842 23.7207 70 24.1022 70 24.5C70 24.8978 69.842 25.2794 69.5607 25.5607C69.2793 25.842 68.8978 26 68.5 26ZM68.5 19H66.5C66.1022 19 65.7207 18.842 65.4393 18.5607C65.158 18.2794 65 17.8978 65 17.5C65 17.1022 65.158 16.7207 65.4393 16.4394C65.7207 16.158 66.1022 16 66.5 16H68.5C68.8978 16 69.2793 16.158 69.5607 16.4394C69.842 16.7207 70 17.1022 70 17.5C70 17.8978 69.842 18.2794 69.5607 18.5607C69.2793 18.842 68.8978 19 68.5 19ZM145.5 27H121.5C121.102 27 120.721 26.842 120.439 26.5607C120.158 26.2794 120 25.8978 120 25.5C120 25.1022 120.158 24.7207 120.439 24.4394C120.721 24.158 121.102 24 121.5 24H145.5C145.898 24 146.279 24.158 146.561 24.4394C146.842 24.7207 147 25.1022 147 25.5C147 25.8978 146.842 26.2794 146.561 26.5607C146.279 26.842 145.898 27 145.5 27ZM145.5 11H121.5C121.102 11 120.721 10.842 120.439 10.5607C120.158 10.2794 120 9.89784 120 9.50001C120 9.10219 120.158 8.72066 120.439 8.43935C120.721 8.15805 121.102 8.00001 121.5 8.00001H145.5C145.898 8.00001 146.279 8.15805 146.561 8.43935C146.842 8.72066 147 9.10219 147 9.50001C147 9.89784 146.842 10.2794 146.561 10.5607C146.279 10.842 145.898 11 145.5 11ZM108.5 48C107.214 48 105.958 47.6188 104.889 46.9046C103.82 46.1903 102.987 45.1752 102.495 43.9875C102.003 42.7997 101.874 41.4928 102.125 40.2319C102.376 38.971 102.995 37.8129 103.904 36.9038C104.813 35.9948 105.971 35.3757 107.232 35.1249C108.493 34.8741 109.8 35.0028 110.987 35.4948C112.175 35.9868 113.19 36.8199 113.905 37.8888C114.619 38.9577 115 40.2144 115 41.5C115 43.2239 114.315 44.8772 113.096 46.0962C111.877 47.3152 110.224 48 108.5 48ZM108.49 37.987C107.798 37.987 107.121 38.1923 106.546 38.5769C105.97 38.9615 105.521 39.5081 105.256 40.1476C104.992 40.7872 104.922 41.4909 105.057 42.1698C105.192 42.8488 105.526 43.4724 106.015 43.9619C106.505 44.4514 107.128 44.7847 107.807 44.9198C108.486 45.0548 109.19 44.9855 109.829 44.7206C110.469 44.4557 111.016 44.0071 111.4 43.4315C111.785 42.8559 111.99 42.1792 111.99 41.487C111.99 40.5588 111.621 39.6685 110.965 39.0121C110.308 38.3558 109.418 37.987 108.49 37.987ZM108.5 32C107.214 32 105.958 31.6188 104.889 30.9046C103.82 30.1903 102.987 29.1752 102.495 27.9875C102.003 26.7997 101.874 25.4928 102.125 24.2319C102.376 22.971 102.995 21.8129 103.904 20.9038C104.813 19.9948 105.971 19.3757 107.232 19.1249C108.493 18.8741 109.8 19.0028 110.987 19.4948C112.175 19.9868 113.19 20.8199 113.905 21.8888C114.619 22.9577 115 24.2144 115 25.5C115 27.2239 114.315 28.8772 113.096 30.0962C111.877 31.3152 110.224 32 108.5 32ZM108.49 21.987C107.798 21.987 107.121 22.1923 106.546 22.5769C105.97 22.9615 105.521 23.5081 105.256 24.1476C104.992 24.7872 104.922 25.4909 105.057 26.1698C105.192 26.8488 105.526 27.4724 106.015 27.9619C106.505 28.4514 107.128 28.7847 107.807 28.9198C108.486 29.0548 109.19 28.9855 109.829 28.7206C110.469 28.4557 111.016 28.0071 111.4 27.4315C111.785 26.8559 111.99 26.1792 111.99 25.487C111.99 24.5588 111.621 23.6685 110.965 23.0121C110.308 22.3558 109.418 21.987 108.49 21.987ZM108.5 16C107.214 16 105.958 15.6188 104.889 14.9046C103.82 14.1903 102.987 13.1752 102.495 11.9875C102.003 10.7997 101.874 9.4928 102.125 8.23192C102.376 6.97105 102.995 5.81286 103.904 4.90382C104.813 3.99478 105.971 3.37571 107.232 3.12491C108.493 2.8741 109.8 3.00282 110.987 3.49479C112.175 3.98676 113.19 4.81989 113.905 5.8888C114.619 6.95772 115 8.21443 115 9.50001C115 11.2239 114.315 12.8772 113.096 14.0962C111.877 15.3152 110.224 16 108.5 16ZM108.49 5.98701C107.798 5.98701 107.121 6.19228 106.546 6.57687C105.97 6.96145 105.521 7.50808 105.256 8.14762C104.992 8.78716 104.922 9.49089 105.057 10.1698C105.192 10.8488 105.526 11.4724 106.015 11.9619C106.505 12.4514 107.128 12.7847 107.807 12.9198C108.486 13.0548 109.19 12.9855 109.829 12.7206C110.469 12.4557 111.016 12.0071 111.4 11.4315C111.785 10.8559 111.99 10.1792 111.99 9.48701C111.99 8.55875 111.621 7.66852 110.965 7.01214C110.308 6.35576 109.418 5.98701 108.49 5.98701ZM121.5 40H145.5C145.898 40 146.279 40.158 146.561 40.4394C146.842 40.7207 147 41.1022 147 41.5C147 41.8978 146.842 42.2794 146.561 42.5607C146.279 42.842 145.898 43 145.5 43H121.5C121.102 43 120.721 42.842 120.439 42.5607C120.158 42.2794 120 41.8978 120 41.5C120 41.1022 120.158 40.7207 120.439 40.4394C120.721 40.158 121.102 40 121.5 40ZM246 48H204C202.939 48 201.922 47.5786 201.172 46.8284C200.421 46.0783 200 45.0609 200 44V19.75C200 19.707 200 19.667 200 19.624V18C200 16.9391 200.421 15.9217 201.172 15.1716C201.922 14.4214 202.939 14 204 14H209V5.00001C209 4.20436 209.316 3.4413 209.879 2.87869C210.441 2.31608 211.204 2.00001 212 2.00001H238C238.796 2.00001 239.559 2.31608 240.121 2.87869C240.684 3.4413 241 4.20436 241 5.00001V14H246C247.061 14 248.078 14.4214 248.828 15.1716C249.579 15.9217 250 16.9391 250 18V44C250 45.0609 249.579 46.0783 248.828 46.8284C248.078 47.5786 247.061 48 246 48ZM204 17C203.735 17 203.48 17.1054 203.293 17.2929C203.105 17.4804 203 17.7348 203 18V18.627L209 22.922V17H204ZM238 5.00001H212V25.069L224.948 34.337L238 24.994V5.00001ZM247 18C247 17.7348 246.895 17.4804 246.707 17.2929C246.52 17.1054 246.265 17 246 17H241V22.847L247 18.552V18ZM247 22.6L226.13 37.537C225.816 37.8495 225.391 38.0249 224.948 38.0249C224.504 38.0249 224.079 37.8495 223.765 37.537L203 22.673V44C203 44.2652 203.105 44.5196 203.293 44.7071C203.48 44.8947 203.735 45 204 45H246C246.265 45 246.52 44.8947 246.707 44.7071C246.895 44.5196 247 44.2652 247 44V22.6ZM223.767 22.986C223.542 22.9873 223.318 22.9438 223.11 22.8579C222.901 22.7721 222.712 22.6457 222.553 22.486L217.478 16.921C217.319 16.762 217.192 16.5732 217.106 16.3654C217.019 16.1575 216.974 15.9346 216.974 15.7095C216.974 15.4844 217.018 15.2614 217.104 15.0532C217.19 14.8451 217.316 14.6559 217.474 14.4965C217.633 14.3371 217.822 14.2105 218.03 14.1241C218.238 14.0376 218.461 13.993 218.686 13.9926C218.911 13.9923 219.134 14.0363 219.342 14.1222C219.55 14.208 219.74 14.334 219.899 14.493L223.817 18.793L231.058 11.484C231.217 11.325 231.407 11.199 231.615 11.1132C231.823 11.0273 232.046 10.9833 232.271 10.9836C232.496 10.984 232.719 11.0286 232.927 11.1151C233.135 11.2015 233.324 11.3281 233.483 11.4875C233.641 11.6469 233.767 11.8361 233.853 12.0442C233.939 12.2524 233.983 12.4754 233.983 12.7005C233.983 12.9256 233.938 13.1485 233.851 13.3564C233.765 13.5642 233.638 13.753 233.479 13.912L224.979 22.49C224.82 22.6483 224.63 22.7735 224.422 22.8583C224.214 22.9431 223.992 22.9858 223.767 22.984V22.986ZM293 49H259C257.939 49 256.922 48.5786 256.172 47.8284C255.421 47.0783 255 46.0609 255 45V38H253.5C253.102 38 252.721 37.842 252.439 37.5607C252.158 37.2794 252 36.8978 252 36.5C252 36.1022 252.158 35.7207 252.439 35.4394C252.721 35.158 253.102 35 253.5 35H255V26H253.5C253.102 26 252.721 25.842 252.439 25.5607C252.158 25.2794 252 24.8978 252 24.5C252 24.1022 252.158 23.7207 252.439 23.4394C252.721 23.158 253.102 23 253.5 23H255V14H253.5C253.303 14 253.108 13.9612 252.926 13.8858C252.744 13.8104 252.579 13.7 252.439 13.5607C252.3 13.4214 252.19 13.256 252.114 13.074C252.039 12.892 252 12.697 252 12.5C252 12.303 252.039 12.108 252.114 11.926C252.19 11.744 252.3 11.5786 252.439 11.4394C252.579 11.3001 252.744 11.1896 252.926 11.1142C253.108 11.0388 253.303 11 253.5 11H255V4.00001C255 2.93915 255.421 1.92173 256.172 1.17158C256.922 0.421439 257.939 1.12576e-05 259 1.12576e-05H293C294.061 1.12576e-05 295.078 0.421439 295.828 1.17158C296.579 1.92173 297 2.93915 297 4.00001V45C297 46.0609 296.579 47.0783 295.828 47.8284C295.078 48.5786 294.061 49 293 49ZM263 3.00001H259C258.735 3.00001 258.48 3.10537 258.293 3.2929C258.105 3.48044 258 3.73479 258 4.00001V11H258.5C258.697 11 258.892 11.0388 259.074 11.1142C259.256 11.1896 259.421 11.3001 259.561 11.4394C259.7 11.5786 259.81 11.744 259.886 11.926C259.961 12.108 260 12.303 260 12.5C260 12.697 259.961 12.892 259.886 13.074C259.81 13.256 259.7 13.4214 259.561 13.5607C259.421 13.7 259.256 13.8104 259.074 13.8858C258.892 13.9612 258.697 14 258.5 14H258V23H258.5C258.898 23 259.279 23.158 259.561 23.4394C259.842 23.7207 260 24.1022 260 24.5C260 24.8978 259.842 25.2794 259.561 25.5607C259.279 25.842 258.898 26 258.5 26H258V35H258.5C258.898 35 259.279 35.158 259.561 35.4394C259.842 35.7207 260 36.1022 260 36.5C260 36.8978 259.842 37.2794 259.561 37.5607C259.279 37.842 258.898 38 258.5 38H258V45C258 45.2652 258.105 45.5196 258.293 45.7071C258.48 45.8947 258.735 46 259 46H263V3.00001ZM294 4.00001C294 3.73479 293.895 3.48044 293.707 3.2929C293.52 3.10537 293.265 3.00001 293 3.00001H266V46H293C293.265 46 293.52 45.8947 293.707 45.7071C293.895 45.5196 294 45.2652 294 45V4.00001ZM287.5 21H272.5C272.102 21 271.721 20.842 271.439 20.5607C271.158 20.2794 271 19.8978 271 19.5C271 19.1022 271.158 18.7207 271.439 18.4394C271.721 18.158 272.102 18 272.5 18H287.5C287.898 18 288.279 18.158 288.561 18.4394C288.842 18.7207 289 19.1022 289 19.5C289 19.8978 288.842 20.2794 288.561 20.5607C288.279 20.842 287.898 21 287.5 21ZM287.5 14H272.5C272.303 14 272.108 13.9612 271.926 13.8858C271.744 13.8104 271.579 13.7 271.439 13.5607C271.3 13.4214 271.19 13.256 271.114 13.074C271.039 12.892 271 12.697 271 12.5C271 12.303 271.039 12.108 271.114 11.926C271.19 11.744 271.3 11.5786 271.439 11.4394C271.579 11.3001 271.744 11.1896 271.926 11.1142C272.108 11.0388 272.303 11 272.5 11H287.5C287.697 11 287.892 11.0388 288.074 11.1142C288.256 11.1896 288.421 11.3001 288.561 11.4394C288.7 11.5786 288.81 11.744 288.886 11.926C288.961 12.108 289 12.303 289 12.5C289 12.697 288.961 12.892 288.886 13.074C288.81 13.256 288.7 13.4214 288.561 13.5607C288.421 13.7 288.256 13.8104 288.074 13.8858C287.892 13.9612 287.697 14 287.5 14ZM272.5 25H279.5C279.898 25 280.279 25.158 280.561 25.4394C280.842 25.7207 281 26.1022 281 26.5C281 26.8978 280.842 27.2794 280.561 27.5607C280.279 27.842 279.898 28 279.5 28H272.5C272.102 28 271.721 27.842 271.439 27.5607C271.158 27.2794 271 26.8978 271 26.5C271 26.1022 271.158 25.7207 271.439 25.4394C271.721 25.158 272.102 25 272.5 25ZM198.019 14.716L198 15.222L194.633 28.333C194.427 28.8053 194.113 29.2226 193.716 29.551C193.3 29.8141 192.824 29.9685 192.333 30H166.152C165.858 29.9811 165.572 29.9038 165.308 29.7726C165.045 29.6414 164.811 29.459 164.619 29.236C164.319 28.8879 164.075 28.4952 163.896 28.072L159 7.01001H155.666V7.00001H152.5C152.303 7.00001 152.108 6.96121 151.926 6.88583C151.744 6.81045 151.579 6.69996 151.439 6.56067C151.3 6.42138 151.19 6.25602 151.114 6.07404C151.039 5.89205 151 5.69699 151 5.50001C151 5.30303 151.039 5.10797 151.114 4.92599C151.19 4.744 151.3 4.57864 151.439 4.43935C151.579 4.30006 151.744 4.18957 151.926 4.11419C152.108 4.03881 152.303 4.00001 152.5 4.00001H160.5C160.837 4.00284 161.163 4.1208 161.424 4.33433C161.685 4.54787 161.865 4.84414 161.934 5.17401L161.966 5.18701L163.629 12.976L196.355 12.989L196.365 13H196.375C196.814 13 197.235 13.1745 197.546 13.485C197.857 13.7956 198.031 14.2168 198.031 14.656C198.031 14.677 198.02 14.7 198.019 14.716ZM167 27H192L194.812 16H164.375L167 27ZM170.5 33C171.786 33 173.042 33.3812 174.111 34.0955C175.18 34.8097 176.013 35.8248 176.505 37.0126C176.997 38.2003 177.126 39.5072 176.875 40.7681C176.624 42.029 176.005 43.1872 175.096 44.0962C174.187 45.0052 173.029 45.6243 171.768 45.8751C170.507 46.1259 169.2 45.9972 168.013 45.5052C166.825 45.0133 165.81 44.1801 165.095 43.1112C164.381 42.0423 164 40.7856 164 39.5C164 37.7761 164.685 36.1228 165.904 34.9038C167.123 33.6848 168.776 33 170.5 33ZM170.5 43C171.192 43 171.869 42.7947 172.444 42.4102C173.02 42.0256 173.469 41.4789 173.734 40.8394C173.998 40.1999 174.068 39.4961 173.933 38.8172C173.798 38.1383 173.464 37.5146 172.975 37.0251C172.485 36.5357 171.862 36.2023 171.183 36.0673C170.504 35.9322 169.8 36.0015 169.161 36.2664C168.521 36.5313 167.974 36.9799 167.59 37.5555C167.205 38.1311 167 38.8078 167 39.5C167 40.4283 167.369 41.3185 168.025 41.9749C168.681 42.6313 169.572 43 170.5 43ZM187.5 33C188.786 33 190.042 33.3812 191.111 34.0955C192.18 34.8097 193.013 35.8248 193.505 37.0126C193.997 38.2003 194.126 39.5072 193.875 40.7681C193.624 42.029 193.005 43.1872 192.096 44.0962C191.187 45.0052 190.029 45.6243 188.768 45.8751C187.507 46.1259 186.2 45.9972 185.013 45.5052C183.825 45.0133 182.81 44.1801 182.095 43.1112C181.381 42.0423 181 40.7856 181 39.5C181 37.7761 181.685 36.1228 182.904 34.9038C184.123 33.6848 185.776 33 187.5 33ZM187.5 43C188.192 43 188.869 42.7947 189.444 42.4102C190.02 42.0256 190.469 41.4789 190.734 40.8394C190.998 40.1999 191.068 39.4961 190.933 38.8172C190.798 38.1383 190.464 37.5146 189.975 37.0251C189.485 36.5357 188.862 36.2023 188.183 36.0673C187.504 35.9322 186.8 36.0015 186.161 36.2664C185.521 36.5313 184.974 36.9799 184.59 37.5555C184.205 38.1311 184 38.8078 184 39.5C184 40.4283 184.369 41.3185 185.025 41.9749C185.681 42.6313 186.572 43 187.5 43Z" fill="#FBFBFB"/>
</g>
<defs>
<clipPath id="clip0_1_2">
<rect width="400" height="50" fill="white" transform="translate(-100)"/>
</clipPath>
</defs>
</svg>
